<?xml version="1.0" standalone="no"?>
<!DOCTYPE svg PUBLIC "-//W3C//DTD SVG 20010904//EN"
 "http://www.w3.org/TR/2001/REC-SVG-20010904/DTD/svg10.dtd">
<svg version="1.0" xmlns="http://www.w3.org/2000/svg"
 width="1024.000000pt" height="1024.000000pt" viewBox="0 0 1024.000000 1024.000000"
 preserveAspectRatio="xMidYMid meet">

<g transform="translate(0.000000,1024.000000) scale(0.100000,-0.100000)"
fill="#000000" stroke="none">
<path d="M4885 9750 c-1956 -112 -3603 -1555 -4000 -3504 -217 -1070 -41
-2183 495 -3117 681 -1188 1866 -1988 3197 -2159 563 -73 1143 -33 1683 115
1202 330 2218 1182 2765 2320 636 1320 581 2891 -145 4156 -577 1006 -1521
1742 -2620 2044 -442 121 -916 171 -1375 145z m565 -431 c177 -16 473 -65 660
-110 273 -66 738 -253 977 -395 183 -108 463 -304 558 -391 11 -10 47 -40 80
-68 98 -82 327 -314 407 -411 91 -110 201 -264 201 -281 0 -6 5 -11 11 -10 12
2 125 -161 126 -180 0 -7 10 -24 23 -38 84 -97 367 -686 367 -765 0 -10 4 -21
9 -25 14 -8 56 -139 106 -335 52 -198 80 -340 95 -484 6 -55 13 -113 16 -130
3 -17 7 -102 11 -189 6 -158 6 -158 -16 -164 -17 -4 -19 -8 -9 -14 11 -8 11
-10 -1 -18 -9 -6 -10 -11 -2 -15 6 -4 11 -29 11 -56 0 -29 5 -50 12 -52 9 -3
11 -31 9 -93 -1 -49 -5 -93 -7 -97 -3 -4 -101 -8 -218 -8 -171 0 -213 -3 -213
-13 0 -8 6 -14 13 -14 7 0 11 4 8 8 -2 4 84 8 192 9 175 1 196 -1 190 -15 -3
-9 -2 -14 3 -11 5 3 8 -5 7 -19 0 -14 -4 -25 -7 -25 -7 0 -11 -43 -11 -105 0
-16 -8 -79 -19 -139 -10 -60 -19 -113 -19 -118 0 -5 -4 -6 -10 -3 -12 8 0 -28
13 -36 5 -4 0 -24 -11 -45 l-20 -39 -11 28 c-6 16 -11 34 -11 40 -1 26 -78
158 -116 199 -63 67 -188 148 -229 148 -19 0 -20 -5 15 114 33 115 83 332 82
359 0 9 5 17 11 17 9 0 9 2 1 8 -8 5 -9 23 -4 58 7 42 14 200 11 227 -1 4 -52
-38 -113 -94 -62 -57 -156 -130 -208 -164 -98 -64 -250 -140 -250 -126 0 10
54 101 88 148 36 50 72 135 72 170 0 18 -9 55 -20 83 -11 28 -20 62 -20 75 0
54 -108 345 -198 536 -50 103 -86 151 -155 201 -75 55 -77 57 -77 78 0 19 7
20 98 20 l97 0 23 -42 c31 -58 76 -106 107 -114 16 -4 28 -16 31 -31 6 -23 10
-24 50 -18 l42 6 57 -71 c31 -38 58 -70 61 -70 11 0 54 33 54 42 0 6 -22 38
-48 72 -63 81 -65 83 -67 126 -2 32 -14 48 -96 128 -52 51 -101 92 -110 92
-20 0 -50 33 -134 145 -63 83 -209 269 -295 375 -56 69 -73 98 -66 115 3 9 2
14 -3 11 -9 -6 -104 105 -276 319 -49 62 -119 148 -155 191 -35 44 -143 176
-239 294 -96 118 -191 233 -212 256 -20 23 -40 56 -44 75 -9 42 -32 69 -58 69
-11 0 -41 22 -67 51 -33 36 -53 50 -64 46 -32 -13 -29 -37 14 -93 23 -30 48
-71 56 -89 9 -22 23 -37 39 -41 22 -6 89 -80 225 -253 25 -31 110 -135 190
-231 80 -96 156 -190 169 -208 13 -19 33 -43 45 -55 12 -12 53 -62 91 -112 38
-49 86 -109 107 -132 21 -24 38 -49 38 -57 0 -8 -13 -23 -30 -33 -16 -9 -30
-20 -30 -24 0 -4 -25 -18 -55 -33 -57 -27 -105 -80 -124 -139 -9 -27 -27 -41
-103 -82 -152 -82 -146 -80 -163 -38 -9 20 -29 84 -46 142 -45 156 -88 240
-150 292 l-51 43 22 18 c12 10 31 18 41 18 45 0 214 63 241 90 39 40 38 88 -3
135 -34 38 -159 141 -314 257 -117 88 -141 101 -158 92 -208 -123 -460 -290
-502 -334 -36 -37 -41 -96 -11 -129 31 -34 148 -88 233 -106 43 -10 84 -19 92
-21 8 -3 -16 -25 -56 -53 -125 -88 -144 -124 -215 -411 -33 -134 -41 -183 -41
-261 0 -114 20 -166 102 -269 44 -54 52 -69 47 -94 -3 -15 -6 -75 -6 -131 l0
-103 -56 -71 c-50 -62 -61 -71 -90 -71 -40 0 -58 -22 -115 -147 -65 -141 -81
-173 -90 -173 -12 0 -35 73 -68 215 -39 168 -63 309 -54 313 33 11 34 16 17
221 l-17 202 51 45 c54 47 83 104 84 164 0 19 -5 80 -11 135 -6 55 -16 145
-22 200 -24 227 -72 309 -229 397 -69 39 -110 72 -110 89 0 6 9 23 19 38 11
15 23 40 27 55 4 19 11 25 21 21 9 -3 53 -8 99 -11 80 -5 84 -4 84 16 0 33
-37 98 -104 180 -89 109 -126 164 -166 244 -44 90 -58 93 -196 37 -55 -22
-157 -51 -228 -66 -147 -30 -183 -45 -192 -80 -11 -46 54 -112 150 -151 l43
-18 1 -61 c0 -135 31 -275 69 -317 9 -10 14 -20 12 -22 -2 -1 -33 -22 -68 -46
-80 -53 -134 -108 -161 -160 -13 -26 -32 -108 -51 -223 -16 -100 -34 -193 -40
-207 -12 -29 -13 -237 -1 -269 4 -13 0 -83 -10 -164 -22 -178 -23 -310 -3
-367 8 -24 31 -65 51 -93 l37 -51 -11 -119 c-6 -66 -13 -122 -16 -124 -7 -7
-118 24 -203 56 -270 105 -524 371 -611 641 -31 96 -42 171 -42 285 0 89 3
104 20 120 10 9 24 32 30 50 12 36 29 43 169 69 122 23 174 21 231 -10 56 -31
79 -29 99 8 14 25 14 29 -5 55 -27 37 -82 63 -146 70 -51 5 -262 -28 -299 -48
-12 -6 -22 0 -38 21 -26 36 -69 40 -96 10 -9 -10 -34 -25 -54 -31 -20 -7 -98
-43 -173 -80 -75 -38 -199 -95 -275 -128 -76 -32 -155 -67 -175 -76 l-37 -18
-42 39 c-23 21 -53 49 -65 60 -21 20 -34 55 -63 169 -10 40 -11 41 -83 59
-115 29 -225 85 -296 151 -91 84 -91 86 -43 150 23 30 41 60 41 67 1 7 13 -11
28 -41 42 -83 125 -162 226 -212 74 -36 97 -43 165 -47 44 -2 97 -1 118 3 37
8 37 8 -42 25 -146 33 -229 75 -323 164 -52 49 -93 108 -106 153 -6 18 15 45
124 157 86 90 130 143 130 158 0 26 -37 68 -60 68 -23 0 -200 -155 -294 -256
-160 -173 -369 -476 -432 -626 -25 -59 -72 -158 -80 -167 -2 -2 -10 4 -19 12
-45 45 -153 27 -192 -32 -27 -40 -31 -124 -8 -155 12 -16 11 -24 -10 -67 -14
-27 -25 -65 -25 -85 0 -27 -7 -41 -25 -56 -30 -24 -81 -174 -71 -213 4 -14 20
-39 37 -55 l32 -30 -43 -147 c-49 -172 -48 -171 -187 -235 -54 -25 -93 -49
-93 -57 0 -8 13 -66 30 -130 16 -64 39 -158 50 -209 11 -52 31 -119 44 -150
28 -68 67 -189 69 -214 1 -10 4 -18 8 -18 3 0 12 -21 20 -47 7 -26 21 -63 30
-83 9 -19 15 -38 12 -42 -2 -5 1 -8 7 -8 7 0 9 -8 4 -22 -3 -13 -3 -19 2 -15
10 9 66 -111 58 -124 -3 -5 -1 -9 5 -9 11 0 74 -109 85 -147 7 -21 6 -21 -40
-7 -26 8 -108 26 -182 40 -122 24 -150 26 -306 21 -94 -3 -181 -8 -192 -12
-20 -6 -22 -1 -33 57 -6 35 -10 74 -9 88 1 14 -4 82 -11 151 -6 69 -9 134 -5
143 4 11 1 21 -7 26 -7 5 98 9 236 10 137 0 251 3 254 5 2 3 -113 5 -256 5
l-260 0 -7 96 c-6 85 -5 98 11 109 17 12 19 43 9 111 -3 17 5 20 73 25 l76 5
-81 2 -82 2 -4 38 c-11 84 25 465 63 677 26 141 80 356 118 465 93 268 142
396 179 465 9 17 26 53 37 81 27 64 166 318 198 361 13 18 28 29 32 25 5 -4 5
-2 2 4 -7 12 42 99 94 169 17 22 66 89 111 150 121 165 373 453 385 441 3 -3
17 9 31 26 34 41 199 181 332 284 353 273 739 472 1205 624 186 60 325 91 625
142 221 36 603 49 840 27z m-13 -1123 c9 -28 8 -33 -3 -29 -10 4 -11 0 -1 -20
6 -14 15 -23 19 -21 5 3 8 0 8 -5 0 -6 7 -11 15 -11 9 0 12 -6 8 -16 -5 -13
-15 -15 -50 -10 -23 3 -43 4 -43 2 0 -2 27 -14 60 -26 57 -21 81 -50 42 -50
-23 0 -151 41 -271 87 l-93 36 81 24 c45 13 108 34 139 48 31 13 62 24 68 25
6 0 15 -15 21 -34z m-277 -126 c58 -21 146 -50 195 -64 50 -15 104 -34 120
-41 30 -14 30 -15 5 -16 -92 -5 -379 79 -467 136 -20 14 -23 19 -12 26 16 10
22 9 159 -41z m1524 -134 c-4 -10 5 -16 28 -22 l33 -7 -40 -12 -40 -13 59 -1
c33 -1 56 -4 52 -8 -3 -4 6 -12 21 -19 27 -12 26 -12 -22 -14 -27 -1 -70 -5
-95 -9 -38 -7 -28 -9 55 -10 89 -1 97 -2 79 -15 -15 -11 -46 -14 -120 -12
-171 6 -438 -25 -497 -56 -10 -5 -21 -8 -23 -5 -4 4 143 99 369 239 l59 37 44
-30 c27 -18 41 -35 38 -43z m-1456 -23 c13 -3 19 -9 13 -12 -6 -4 -13 -23 -16
-43 -5 -33 -4 -36 22 -41 15 -3 36 -1 46 5 10 5 28 7 40 5 l22 -4 -22 -8 c-32
-10 -29 -18 13 -31 29 -9 34 -9 30 2 -18 43 -16 46 8 15 14 -19 26 -44 26 -55
0 -16 3 -17 12 -8 27 27 27 9 -1 -31 -68 -100 -232 -133 -219 -45 2 18 9 23
31 21 32 -2 34 9 6 48 -15 22 -17 27 -5 23 10 -4 16 -1 16 9 0 14 -20 27 -42
27 -10 0 -8 -17 7 -52 10 -25 -21 -24 -35 1 -13 25 -13 78 0 86 17 11 11 37
-10 42 -13 3 -20 14 -20 29 0 20 5 24 28 24 15 0 38 -3 50 -7z m225 -132 c-9
-12 -22 -21 -27 -21 -5 0 1 11 14 25 28 30 39 26 13 -4z m1227 -156 c8 -121 7
-124 -61 -105 -49 14 -176 160 -139 160 5 0 14 -9 20 -20 16 -30 38 -24 45 13
l6 32 62 0 62 0 5 -80z m-1232 10 c-2 -35 -1 -59 3 -53 10 16 39 -8 39 -31 0
-47 -74 -96 -119 -79 -55 20 -66 67 -20 87 33 14 89 92 89 123 0 10 3 18 6 18
4 0 4 -29 2 -65z m1115 -124 c2 -18 10 -37 18 -42 11 -7 10 -9 -6 -10 -12 -1
-3 -6 20 -14 27 -8 39 -17 37 -28 -1 -8 2 -18 8 -22 8 -5 7 -11 -1 -22 -11
-12 -10 -14 3 -11 17 3 26 -14 11 -19 -14 -5 -102 57 -114 79 -7 12 -8 43 -4
80 7 62 22 67 28 9z m144 17 c-3 -7 -5 -2 -5 12 0 14 2 19 5 13 2 -7 2 -19 0
-25z m-1028 -46 c19 -14 43 -47 56 -76 28 -63 40 -110 25 -101 -5 3 -10 12
-10 18 0 7 -9 23 -20 37 -18 23 -20 23 -20 5 -1 -18 -2 -18 -10 3 -5 12 -12
22 -15 22 -4 0 -4 -3 -2 -7 3 -5 -1 -14 -9 -21 -12 -11 -14 -9 -14 8 0 21 0
21 -21 1 -12 -11 -29 -17 -38 -14 -14 4 -14 3 -1 -6 11 -8 12 -13 3 -19 -6 -4
-19 -21 -27 -37 -11 -21 -16 -24 -16 -12 0 10 5 27 10 38 6 10 8 19 6 19 -11
0 -32 -56 -29 -75 3 -16 2 -17 -6 -5 -9 13 -11 13 -11 -2 0 -10 -4 -18 -8 -18
-5 0 -14 -10 -20 -22 -10 -22 -11 -22 -11 -2 -1 11 4 25 11 32 9 9 9 12 1 12
-16 0 -26 -35 -18 -60 3 -11 3 -29 0 -40 -7 -21 -39 -27 -51 -9 -7 12 -75
-152 -78 -188 0 -11 -3 -20 -6 -18 -3 2 -21 -25 -39 -60 -19 -36 -38 -62 -42
-59 -5 2 -14 -4 -20 -15 -7 -10 -18 -17 -26 -14 -9 4 -2 17 22 45 45 53 89
161 120 295 14 59 28 117 31 128 3 11 -26 -43 -65 -120 -38 -77 -80 -153 -94
-169 l-24 -29 -8 119 c-11 162 -12 263 -2 299 l8 30 -20 -31 c-10 -17 -35 -52
-55 -78 -35 -46 -36 -50 -36 -139 -1 -133 -19 -212 -40 -177 -6 9 -25 13 -62
11 l-54 -2 17 118 c34 223 48 253 162 336 112 84 112 84 134 40 43 -88 143
-109 236 -50 54 34 64 37 84 24 6 -4 15 -2 19 4 5 8 3 9 -6 4 -10 -6 -12 -3
-8 13 7 27 0 28 -19 5 -8 -10 -13 -13 -10 -8 2 6 9 25 16 42 l13 33 31 -16
c18 -9 47 -28 66 -42z m-2979 -12 c-11 -16 -26 -32 -31 -36 -6 -3 -19 -20 -30
-38 -10 -17 -19 -24 -19 -16 0 14 85 120 96 120 3 0 -4 -13 -16 -30z m3780
-75 c8 -22 4 -31 -36 -72 -81 -86 -145 -221 -167 -354 -12 -70 -12 -71 -52
-84 -21 -8 -40 -13 -42 -12 -6 7 78 340 97 380 22 46 85 111 145 148 39 24 44
24 55 -6z m199 -20 c0 -5 -4 -3 -9 5 -5 8 -9 22 -9 30 0 16 17 -16 18 -35z
m-1035 -40 c-4 -8 -8 -15 -10 -15 -2 0 -4 7 -4 15 0 8 4 15 10 15 5 0 7 -7 4
-15z m84 -20 c-3 -3 -9 2 -12 12 -6 14 -5 15 5 6 7 -7 10 -15 7 -18z m1852
-17 c0 -16 -61 -78 -77 -78 -19 0 -17 4 25 48 40 42 52 49 52 30z m-5047 -52
c-15 -25 -31 -46 -36 -46 -4 0 7 22 25 49 41 62 49 59 11 -3z m4915 -48 c16
-16 15 -31 -2 -25 -7 3 -24 -2 -36 -10 -19 -13 -21 -22 -16 -55 4 -26 3 -37
-4 -33 -6 3 -8 11 -5 16 4 5 -1 9 -9 9 -9 0 -16 -9 -16 -20 0 -21 -15 -27 -25
-10 -3 6 -1 10 5 10 6 0 9 4 5 10 -9 15 21 75 50 98 32 25 37 26 53 10z m209
-25 c15 -21 88 -113 160 -205 128 -160 158 -205 111 -161 -37 34 -162 93 -199
94 l-34 1 31 10 c40 13 60 51 38 73 -19 19 -66 19 -102 1 -25 -13 -258 -28
-246 -17 2 3 28 17 56 31 67 34 92 67 90 118 -1 29 5 46 23 66 13 14 29 26 34
26 5 0 23 -17 38 -37z m-5022 -110 c13 -30 41 -78 62 -105 33 -46 35 -52 20
-63 -10 -7 -44 -18 -76 -24 -74 -15 -123 -46 -135 -89 -14 -49 5 -79 69 -108
30 -14 55 -29 55 -34 0 -14 -66 -23 -117 -15 -65 9 -173 54 -173 71 0 23 85
207 161 346 92 172 92 171 101 119 4 -24 19 -67 33 -98z m-154 98 c-33 -45
-143 -266 -181 -360 -19 -47 -35 -80 -38 -73 -11 34 201 462 229 462 6 0 1
-13 -10 -29z m2959 -41 c0 -5 -2 -10 -4 -10 -3 0 -8 5 -11 10 -3 6 -1 10 4 10
6 0 11 -4 11 -10z m203 -10 c-3 -11 -7 -20 -9 -20 -2 0 -4 9 -4 20 0 11 4 20
9 20 5 0 7 -9 4 -20z m-155 -15 c-6 -14 -13 -23 -16 -21 -7 7 9 46 18 46 5 0
4 -11 -2 -25z m-58 -5 c0 -5 -4 -10 -10 -10 -5 0 -10 5 -10 10 0 6 5 10 10 10
6 0 10 -4 10 -10z m17 -22 c-3 -8 -6 -5 -6 6 -1 11 2 17 5 13 3 -3 4 -12 1
-19z m-26 -20 c11 -21 11 -22 -4 -9 -10 7 -17 17 -17 22 0 15 9 10 21 -13z
m1839 -60 c-25 -22 -58 -52 -74 -67 -16 -14 -37 -26 -45 -26 -9 -1 -15 -6 -14
-12 1 -6 -14 -26 -35 -43 -35 -30 -249 -232 -369 -347 -42 -42 -55 -49 -60
-37 -4 11 34 54 133 147 76 72 184 176 239 232 94 95 250 213 264 200 3 -4
-14 -25 -39 -47z m-1851 -3 c0 -5 -4 -3 -9 5 -5 8 -9 22 -9 30 0 16 17 -16 18
-35z m-27 -3 c3 -11 0 -19 -7 -19 -7 0 -10 8 -7 19 2 10 6 18 7 18 1 0 5 -8 7
-18z m-2359 -23 c9 -6 17 -15 16 -22 0 -9 -2 -9 -6 1 -10 25 -31 11 -36 -25
-3 -21 -9 -51 -13 -67 -5 -20 -3 -27 4 -22 6 3 13 3 16 -2 7 -12 -15 -12 -137
0 -60 6 -104 14 -99 17 5 3 16 20 25 37 9 18 36 49 59 69 41 35 45 36 98 30
30 -4 63 -11 73 -16z m965 -17 c4 -30 -14 -51 -38 -45 -24 6 -33 29 -19 54 14
28 53 21 57 -9z m1765 -9 c-3 -7 -9 -10 -14 -7 -5 3 -6 -3 -2 -12 5 -13 3 -15
-8 -9 -12 8 -12 6 0 -8 17 -21 12 -21 -25 -2 -16 8 -42 15 -57 15 -40 0 -29
23 14 31 56 10 98 7 92 -8z m1661 2 c13 -9 93 -33 179 -54 85 -22 166 -45 179
-53 23 -13 22 -13 -13 -16 -36 -3 -437 62 -447 73 -8 8 50 65 65 65 8 0 24 -7
37 -15z m-4385 -26 c1 8 3 12 6 9 9 -8 -6 -38 -16 -32 -5 3 -9 15 -8 27 0 21
1 21 9 2 5 -12 9 -14 9 -6z m1986 -13 c32 -14 52 -32 22 -20 -10 4 -12 -3 -9
-27 3 -22 1 -30 -7 -25 -6 4 -11 2 -11 -3 0 -6 5 -11 10 -11 6 0 10 -4 10 -10
0 -5 -15 -9 -33 -8 -17 1 -47 -6 -65 -16 -38 -20 -41 -9 -10 45 18 32 19 41 8
54 -12 14 -11 18 1 26 20 13 45 11 84 -5z m-1170 -15 c-12 -20 -164 -137 -250
-193 -96 -62 -225 -118 -273 -118 -16 0 -35 7 -42 15 -26 32 -2 50 158 119 86
37 209 94 272 126 111 57 148 71 135 51z m2390 -30 c-3 -5 9 -11 27 -13 37 -4
48 -23 19 -33 -31 -9 -26 -35 9 -48 17 -6 30 -17 30 -24 0 -7 7 -13 15 -13 31
0 14 -18 -22 -24 -21 -3 -56 -15 -77 -27 -48 -25 -51 -21 -60 73 -5 57 -3 74
9 88 13 14 13 19 3 23 -7 3 2 6 20 6 18 1 31 -3 27 -8z m-610 -11 c16 -6 23
-14 19 -22 -4 -6 -3 -8 3 -5 16 10 55 -26 48 -43 -12 -33 -306 -196 -328 -184
-7 4 -9 4 -5 -1 5 -5 -9 -16 -30 -26 -35 -16 -111 -79 -96 -79 5 0 -7 -15 -25
-34 -18 -19 -39 -32 -46 -30 -6 3 -18 -2 -25 -10 -14 -18 -34 -11 -23 7 4 7
-1 6 -11 -2 -14 -12 -19 -12 -29 -1 -9 10 -9 11 0 6 9 -5 11 -2 7 8 -10 26
-20 11 -44 -64 -39 -122 -51 -76 -14 57 17 62 23 67 241 214 93 62 201 137
242 166 81 58 79 57 116 43z m1810 -66 c165 -44 403 -84 507 -84 68 0 88 -13
88 -55 l0 -35 -64 0 c-85 0 -423 36 -716 75 -19 3 9 -8 64 -25 54 -16 100 -31
102 -33 10 -9 -10 -38 -22 -33 -20 8 -18 -24 3 -47 10 -10 29 -42 43 -70 20
-43 31 -54 60 -61 19 -5 36 -10 38 -11 2 -2 -23 -29 -56 -61 -49 -49 -63 -72
-87 -139 -41 -117 -55 -144 -76 -150 -11 -4 -27 -19 -37 -33 -23 -37 -43 -51
-69 -52 -15 0 -37 -18 -66 -55 -53 -68 -115 -114 -127 -94 -5 7 -11 40 -15 73
-3 34 -10 95 -15 136 -5 41 -17 140 -26 220 -9 80 -22 185 -29 234 l-12 88 60
47 c102 79 198 161 224 192 16 19 31 28 42 24 9 -3 93 -26 186 -51z m-3487 40
c21 -6 22 -11 20 -93 -4 -163 28 -532 58 -677 25 -125 93 -319 150 -431 28
-56 50 -103 47 -103 -31 0 -216 -35 -242 -46 -19 -8 -35 -13 -36 -12 -2 2 -9
29 -17 60 -14 54 -14 58 5 77 33 32 35 144 4 266 -47 192 -113 317 -238 457
l-69 77 22 34 c13 19 41 64 63 101 22 37 51 82 65 101 14 18 45 70 70 114 45
80 53 87 98 75z m-1078 -31 l145 -18 -65 -7 c-36 -4 -120 -3 -188 3 -68 6
-134 8 -147 5 -34 -9 -32 9 3 22 38 15 64 20 87 16 11 -2 85 -11 165 -21z
m2411 10 c13 -17 13 -17 -6 -3 -11 8 -22 16 -24 17 -2 2 0 3 6 3 6 0 17 -8 24
-17z m-3151 -45 c36 -39 9 -108 -42 -108 -22 0 -59 56 -51 79 19 52 60 65 93
29z m565 -8 c25 -11 -1 -11 -35 0 -20 6 -21 8 -5 8 11 0 29 -3 40 -8z m2344
-37 c26 -15 31 -24 31 -55 0 -20 -4 -40 -10 -43 -6 -4 -8 5 -6 22 2 15 1 22
-1 16 -2 -7 -9 -13 -13 -13 -6 0 -5 11 0 26 13 33 13 31 -9 37 -25 6 -33 -15
-25 -59 5 -29 4 -33 -9 -28 -11 4 -18 -2 -23 -20 -3 -13 -3 -29 0 -34 3 -5 -1
-29 -9 -54 -20 -69 -25 -104 -29 -206 -4 -84 -3 -92 12 -80 14 12 14 10 3 -10
-8 -15 -10 -35 -5 -55 l8 -32 7 40 6 40 0 -35 c1 -19 -2 -48 -6 -65 l-7 -30
-27 51 c-39 76 -42 128 -18 324 12 96 23 192 25 213 7 67 44 85 105 50z m-15
-48 c-4 -8 -8 -15 -10 -15 -2 0 -4 7 -4 15 0 8 4 15 10 15 5 0 7 -7 4 -15z
m-2213 -27 c11 -7 41 -32 66 -55 24 -24 49 -43 55 -43 5 0 19 10 29 23 20 22
20 22 10 0 -6 -12 -8 -23 -3 -26 4 -2 2 -2 -5 -1 -7 2 -15 -12 -19 -33 -6 -30
-14 -38 -57 -59 -56 -26 -67 -21 -67 29 0 15 -9 36 -21 48 -14 14 -22 39 -26
75 -6 58 0 64 38 42z m3598 -93 c49 -83 66 -105 84 -105 35 0 90 -19 117 -39
l24 -19 -24 -21 c-28 -22 -45 -27 -34 -9 4 7 3 8 -4 4 -7 -4 -12 -16 -12 -27
0 -18 -2 -19 -15 -5 -8 8 -25 18 -38 21 -12 4 -32 16 -44 27 -12 12 -27 17
-34 13 -8 -6 -10 -4 -4 5 6 10 4 12 -8 7 -11 -4 -32 16 -75 71 -75 98 -96 137
-79 150 11 8 62 29 78 31 3 1 34 -46 68 -104z m-4052 65 c87 -33 143 -42 246
-41 l98 0 35 -72 c19 -39 34 -80 34 -90 0 -13 -20 -27 -66 -49 -56 -26 -71
-30 -93 -20 -14 5 -73 29 -131 52 -130 51 -190 77 -214 95 -18 13 -18 16 5 79
13 36 26 66 29 66 3 0 29 -9 57 -20z m533 -10 c12 -16 17 -30 11 -30 -5 0 -13
9 -16 20 -4 11 -10 18 -15 15 -4 -3 -10 2 -14 10 -10 26 12 16 34 -15z m5207
-17 c-3 -10 -5 -2 -5 17 0 19 2 27 5 18 2 -10 2 -26 0 -35z m-587 18 c0 -5 9
-7 20 -4 11 3 20 0 20 -6 0 -6 11 -11 24 -11 14 0 28 -5 32 -11 5 -8 9 -8 14
1 5 8 9 5 13 -9 3 -14 -2 -27 -17 -39 -12 -9 -26 -24 -31 -32 -8 -13 -7 -13
10 0 16 13 18 13 13 0 -2 -8 -19 -16 -36 -18 -26 -3 -35 2 -56 35 -25 38 -29
53 -27 86 1 17 21 25 21 8z m-5431 -25 c12 -15 5 -70 -14 -101 -7 -11 -18 -37
-25 -57 -12 -39 -30 -51 -30 -20 0 30 42 192 50 192 4 0 13 -6 19 -14z m6071
-17 c0 -10 5 -19 10 -19 12 0 13 -50 1 -69 -7 -11 -11 -10 -20 7 -14 26 -15
116 -1 107 6 -3 10 -15 10 -26z m-4859 -69 c217 -79 385 -224 481 -415 59
-116 110 -327 94 -388 -8 -35 -64 -90 -119 -116 -46 -22 -49 -22 -67 -6 -11
10 -17 21 -15 26 3 4 1 10 -5 14 -15 9 -12 18 16 48 37 40 77 133 81 192 l5
50 -20 -29 c-27 -39 -112 -126 -124 -126 -4 0 -2 13 6 28 23 44 39 158 32 225
-3 33 -8 62 -10 65 -3 2 -16 -8 -29 -22 -37 -39 -47 -33 -47 27 0 58 -23 139
-45 157 -11 9 -22 3 -51 -29 -35 -39 -64 -53 -64 -30 0 12 -56 85 -88 113 -20
19 -21 25 -12 56 9 34 9 34 -49 -27 l-58 -61 -49 5 c-27 2 -59 5 -71 5 -24 0
-91 -43 -173 -112 -104 -87 -211 -156 -224 -143 -3 4 -6 16 -6 27 0 15 15 29
48 47 127 70 381 308 422 397 16 33 31 52 42 52 10 0 54 -13 99 -30z m4336 8
c-3 -8 -6 -5 -6 6 -1 11 2 17 5 13 3 -3 4 -12 1 -19z m77 -37 c-10 -17 -22
-31 -26 -31 -5 0 2 15 14 34 28 42 37 39 12 -3z m93 -33 c-3 -8 -6 -5 -6 6 -1
11 2 17 5 13 3 -3 4 -12 1 -19z m-5509 -22 c34 -19 121 -63 195 -99 97 -46
137 -71 141 -86 17 -60 18 -67 4 -50 -7 9 -23 15 -36 14 -16 -1 -21 3 -18 12
3 8 1 11 -4 8 -6 -4 -20 -3 -31 0 -17 6 -19 9 -8 17 10 7 8 8 -8 5 -16 -4 -23
0 -23 10 0 13 -3 13 -17 2 -10 -7 -15 -9 -11 -5 9 10 -31 48 -42 41 -5 -3 -10
-2 -12 3 -6 15 -78 53 -88 47 -6 -4 -9 -3 -8 2 2 4 -1 9 -6 10 -5 1 -12 6 -15
11 -10 15 -71 43 -71 32 0 -5 5 -10 11 -10 5 0 7 -5 3 -11 -10 -17 -24 10 -24
49 0 17 2 32 4 32 2 0 31 -15 64 -34z m5413 11 c-10 -9 -11 -8 -5 6 3 10 9 15
12 12 3 -3 0 -11 -7 -18z m-4701 -37 c0 -11 -2 -20 -4 -20 -2 0 -6 9 -9 20 -3
11 -1 20 4 20 5 0 9 -9 9 -20z m4760 -5 c-7 -8 -17 -15 -22 -15 -6 0 -5 7 2
15 7 8 17 15 22 15 6 0 5 -7 -2 -15z m-4856 -7 c-11 -18 -36 -35 -129 -90 -87
-52 -105 -57 -105 -30 0 12 34 34 116 75 64 31 119 57 121 57 2 0 1 -6 -3 -12z
m4734 -37 c38 -39 90 -48 146 -27 23 9 52 25 64 36 l21 20 16 -52 c19 -65 19
-85 -1 -161 -18 -69 -40 -117 -54 -117 -21 0 -130 119 -136 149 -8 38 -24 41
-24 4 0 -29 -27 -94 -53 -127 -13 -18 -15 -14 -31 55 -9 41 -17 91 -18 111 -2
21 -4 38 -5 38 -10 0 -33 -68 -44 -127 -7 -40 -16 -73 -20 -73 -8 0 -22 -40
-20 -54 1 -5 -5 -4 -13 3 -12 10 -14 8 -12 -13 3 -23 2 -24 -20 -10 -13 9 -32
14 -43 12 -19 -3 -18 -6 15 -48 29 -37 33 -46 19 -48 -14 -3 -110 31 -124 44
-8 8 81 85 95 82 10 -2 23 22 44 85 41 121 55 145 113 200 28 26 52 47 53 47
1 0 16 -13 32 -29z m-5648 4 c33 -19 70 -19 70 0 0 26 23 17 75 -29 65 -56
162 -119 305 -195 63 -34 121 -68 128 -75 8 -8 12 -29 10 -54 l-3 -40 -43 21
c-83 42 -198 115 -242 154 -25 22 -58 43 -73 47 -15 3 -25 11 -22 16 3 6 -1 7
-9 4 -9 -3 -16 -2 -16 4 0 6 -28 20 -62 31 -35 12 -84 29 -110 38 -48 16 -57
30 -50 71 5 26 8 26 42 7z m4521 -22 c13 -16 12 -17 -3 -4 -10 7 -18 15 -18
17 0 8 8 3 21 -13z m-4131 -21 c25 -11 25 -11 -4 -5 -20 4 -27 3 -22 -6 4 -6
2 -11 -4 -11 -7 0 -10 7 -6 15 3 8 1 15 -5 15 -6 0 -7 5 -3 11 3 6 9 7 13 2 3
-5 17 -14 31 -21z m2567 -39 c-3 -10 -5 -4 -5 12 0 17 2 24 5 18 2 -7 2 -21 0
-30z m1512 3 c-55 -62 -272 -257 -282 -253 -7 3 49 65 132 146 90 88 148 138
154 132 6 -6 4 -15 -4 -25z m-2238 -216 c157 -230 396 -419 608 -481 42 -13
43 -13 37 -48 -3 -20 -6 -44 -6 -55 0 -13 -4 -16 -17 -11 -106 46 -276 75
-431 75 -100 0 -101 0 -122 30 -30 42 -105 216 -139 324 -32 102 -67 261 -77
351 l-6 60 45 -77 c25 -42 73 -118 108 -168z m-2249 180 c4 0 8 -4 8 -10 0
-16 -19 -11 -41 11 -17 17 -19 23 -8 30 10 6 17 2 23 -11 5 -11 13 -20 18 -20z
m3103 -107 c-4 -54 -14 -129 -22 -167 -8 -37 -16 -73 -17 -80 -1 -6 -5 -17 -9
-24 -5 -7 -13 -63 -18 -125 -5 -61 -14 -134 -19 -162 -6 -27 -13 -77 -15 -110
-3 -33 -8 -67 -12 -75 -3 -8 -7 -28 -8 -45 -10 -125 -51 -381 -58 -365 -4 8
-5 4 -2 -10 2 -13 2 -50 -2 -82 -4 -43 -10 -59 -24 -63 -11 -4 -16 -12 -12
-22 3 -8 0 -19 -7 -23 -10 -6 -10 -15 -2 -38 8 -22 7 -32 0 -34 -7 -3 -8 -10
-3 -18 9 -15 7 -88 -2 -104 -3 -4 -9 -2 -14 5 -7 11 -9 11 -9 -1 0 -10 -3 -11
-8 -4 -8 13 -172 24 -172 11 0 -5 -4 -6 -9 -3 -5 4 -34 7 -65 7 -46 1 -57 5
-62 22 -6 18 -7 19 -16 4 -5 -10 -15 -17 -23 -17 -20 0 -30 21 -14 31 10 6 8
9 -9 9 -14 0 -21 -4 -16 -11 4 -8 -3 -9 -25 -4 -20 4 -31 3 -31 -4 0 -6 -7
-11 -16 -11 -14 0 -14 3 -4 15 10 12 10 15 -1 16 -8 0 -5 4 6 10 18 8 17 8 -5
6 -14 -1 -24 -7 -23 -12 2 -11 -136 -14 -153 -3 -6 4 -28 8 -50 9 -21 1 -43 5
-49 9 -5 4 -29 7 -52 8 -49 1 -313 66 -458 112 -204 65 -509 189 -467 190 6 0
12 7 12 15 0 10 -10 15 -27 15 -21 0 -24 -3 -13 -10 8 -5 12 -12 8 -15 -10
-10 -158 67 -151 78 3 6 1 7 -6 3 -15 -10 -102 34 -94 47 4 6 0 8 -9 4 -9 -3
-19 -2 -24 3 -5 4 -40 24 -79 45 -113 60 -266 165 -259 177 4 7 2 8 -5 4 -20
-13 -382 276 -367 292 3 2 -6 13 -20 24 -13 11 -34 38 -45 59 -17 35 -18 44
-8 74 l13 34 125 -122 c137 -133 374 -312 551 -417 453 -267 889 -434 1415
-539 179 -36 673 -95 686 -82 4 3 19 94 34 201 15 107 40 276 56 375 17 99 36
227 44 285 8 58 26 183 40 279 14 95 25 177 25 182 0 5 6 9 14 9 8 0 22 7 30
16 13 13 15 32 9 115 -5 90 -4 99 11 99 16 0 17 -9 11 -97z m1496 60 c24 -63
23 -314 -1 -353 -18 -29 -21 1 -10 94 12 91 6 184 -16 264 -9 32 14 28 27 -5z
m1423 -99 c18 -38 36 -86 40 -107 6 -34 5 -39 -13 -44 -23 -6 -29 -42 -8 -44
9 0 9 -2 -1 -6 -6 -2 -10 -9 -6 -14 3 -5 -2 -9 -10 -9 -12 0 -16 11 -16 43 0
23 -7 87 -15 141 -22 145 -22 145 29 40z m-5994 9 c0 -24 -77 -310 -90 -333
-6 -11 -32 -32 -58 -46 -26 -15 -49 -29 -51 -30 -12 -9 105 -477 149 -594 18
-47 43 -114 56 -149 42 -109 114 -271 178 -396 75 -148 71 -139 55 -129 -7 4
-29 9 -48 11 -19 2 -41 9 -48 15 -13 11 -94 173 -156 313 -49 112 -129 322
-166 437 -34 106 -121 440 -121 463 0 8 41 35 93 62 l92 48 33 120 c19 66 40
144 49 173 14 50 33 70 33 35z m5735 -76 c10 -16 34 -39 52 -52 39 -26 31 -39
-16 -25 -40 11 -39 2 4 -40 19 -19 35 -37 35 -41 0 -13 -38 2 -56 22 -18 19
-44 26 -44 11 0 -21 62 -92 85 -98 14 -3 25 -10 25 -15 0 -11 -167 -12 -174
-1 -3 5 -11 50 -17 100 l-12 91 26 38 c15 21 30 54 33 72 l7 33 17 -33 c9 -19
24 -47 35 -62z m-5550 32 c56 -58 202 -180 277 -230 75 -51 83 -60 61 -76 -32
-25 33 -37 197 -38 161 0 297 21 412 65 l46 17 11 -25 c7 -14 8 -28 4 -33 -4
-4 -102 -29 -218 -54 -182 -42 -219 -47 -285 -42 -161 12 -362 90 -466 181
-57 50 -131 156 -140 201 -4 22 0 36 16 53 29 31 40 28 85 -19z m456 -12 c-1
-4 -1 -26 -1 -49 0 -53 -6 -46 -12 15 -4 28 -2 47 4 45 5 -2 9 -7 9 -11z
m3649 -19 c0 -19 -18 -43 -25 -36 -4 3 -2 16 5 27 12 24 20 27 20 9z m-3178
-102 l29 -40 -23 -17 c-23 -18 -169 -65 -228 -73 -121 -18 -132 -18 -121 2 5
10 45 44 88 75 43 31 105 77 138 101 l60 43 14 -25 c7 -14 27 -44 43 -66z
m3118 4 c216 -98 326 -153 313 -157 -31 -11 -376 133 -456 189 -26 18 -29 45
-3 34 6 -2 72 -32 146 -66z m-157 -14 c19 -15 23 -36 6 -36 -20 0 -49 21 -49
35 0 18 19 19 43 1z m1202 -7 c20 -12 34 -23 32 -26 -8 -7 -77 25 -77 36 0 15
4 14 45 -10z m-1030 -93 c19 -15 19 -15 -7 -16 -44 0 -108 29 -108 50 0 37 34
26 115 -34z m949 43 c11 -17 12 -26 3 -40 -6 -10 -13 -17 -16 -17 -4 1 -32
-10 -63 -25 -39 -17 -58 -32 -58 -43 0 -13 -3 -15 -11 -7 -23 23 -4 57 54 96
31 20 57 42 57 47 0 17 18 11 34 -11z m-1157 -11 c21 -19 32 -58 17 -58 -11 0
-64 34 -64 41 0 13 12 39 18 39 3 0 16 -10 29 -22z m1293 0 c0 -6 -6 -5 -15 2
-8 7 -15 14 -15 16 0 2 7 1 15 -2 8 -4 15 -11 15 -16z m232 -28 c1 -28 2 -50
0 -50 -10 0 -60 31 -70 43 -10 12 -7 19 20 36 18 11 36 21 40 21 3 0 8 -23 10
-50z m-1404 -45 c20 -14 42 -25 49 -25 7 0 13 -9 13 -20 0 -25 -22 -25 -76 -1
-47 21 -57 32 -48 55 8 22 19 20 62 -9z m215 -2 c59 -32 44 -43 -29 -23 -32 9
-44 18 -44 31 0 25 11 24 73 -8z m1112 -25 c108 -97 169 -162 156 -166 -7 -2
-22 4 -34 15 -139 122 -197 178 -197 189 0 23 14 16 75 -38z m-1477 9 c13 -14
18 -27 13 -35 -13 -21 -61 6 -61 35 0 29 20 30 48 0z m2097 3 c18 -8 18 -9 2
-9 -30 -1 -79 -31 -74 -46 3 -7 -10 -26 -29 -43 -32 -28 -36 -29 -76 -20 -62
15 -65 24 -20 47 22 11 48 31 59 44 10 13 25 26 33 30 22 8 82 7 105 -3z
m-1773 -56 c64 -33 53 -49 -23 -33 -30 6 -55 13 -57 14 -5 4 17 45 24 45 2 0
28 -12 56 -26z m-152 -56 c0 -14 -6 -16 -32 -11 -18 3 -48 12 -66 19 -29 12
-31 15 -21 37 l11 25 54 -27 c35 -16 54 -32 54 -43z m-206 23 c30 -31 28 -58
-2 -42 -40 22 -53 37 -46 54 9 23 16 22 48 -12z m1446 -26 l23 -25 -121 0
-122 0 4 -100 c2 -55 2 -100 0 -100 -2 0 -12 30 -24 66 -22 73 -25 119 -10
158 9 26 11 26 118 26 103 0 110 -1 132 -25z m-984 -12 c-10 -10 -19 5 -10 18
6 11 8 11 12 0 2 -7 1 -15 -2 -18z m-3158 -18 c24 -38 28 -50 12 -40 -16 10
-11 -1 7 -16 11 -10 14 -10 9 -1 -14 23 2 12 19 -14 16 -25 16 -26 -6 -19 -17
6 -21 4 -16 -8 7 -18 -45 -26 -149 -25 -70 0 -174 -19 -174 -33 0 -5 8 -9 17
-9 30 0 4 -13 -44 -22 -27 -6 -66 -11 -88 -12 -22 -2 -46 -3 -53 -4 -19 -3
-10 -35 13 -50 17 -11 17 -13 2 -8 -10 3 -23 6 -29 6 -6 0 -8 7 -4 15 3 8 2
15 -3 15 -12 0 -10 33 3 50 10 13 9 13 -7 1 -10 -8 -16 -20 -13 -28 3 -7 1
-13 -5 -13 -6 0 -7 -4 -4 -10 3 -5 -1 -10 -10 -10 -28 0 -55 20 -55 40 0 21
36 110 45 110 4 0 73 18 156 41 139 38 304 76 339 78 8 0 25 -15 38 -34z
m3007 15 c22 -11 45 -20 52 -20 7 0 13 -4 13 -9 0 -13 -28 -22 -35 -11 -4 6
-14 10 -23 10 -14 0 -15 -2 -2 -10 25 -16 3 -23 -34 -10 -20 6 -36 13 -36 15
0 7 20 55 23 55 1 0 20 -9 42 -20z m-135 -76 c0 -19 -14 -18 -71 8 -47 22 -67
47 -54 67 7 13 125 -58 125 -75z m337 70 c-3 -3 -12 -4 -19 -1 -8 3 -5 6 6 6
11 1 17 -2 13 -5z m-547 -28 c28 -31 21 -63 -10 -46 -23 13 -43 47 -35 60 10
15 20 12 45 -14z m1883 7 c9 -9 -22 -43 -40 -43 -16 0 -17 22 -1 38 13 13 31
16 41 5z m-5906 -25 c-3 -8 -6 -5 -6 6 -1 11 2 17 5 13 3 -3 4 -12 1 -19z
m4497 -12 c-7 -19 -34 -29 -34 -12 0 7 3 16 7 19 12 13 32 7 27 -7z m-131 -47
c40 -24 17 -33 -43 -18 -35 9 -50 18 -50 29 0 34 22 31 93 -11z m1592 14 c-14
-15 -25 -31 -25 -36 0 -4 -4 -5 -10 -2 -18 11 -10 34 18 49 41 23 46 19 17
-11z m-1810 -10 c74 -46 51 -71 -35 -37 -37 15 -51 39 -33 57 11 11 20 8 68
-20z m1032 -45 c11 -40 24 -82 28 -92 6 -14 5 -17 -3 -12 -7 4 -12 2 -12 -3 0
-6 -7 -11 -15 -11 -8 0 -15 -4 -15 -9 0 -5 -3 -17 -7 -27 -4 -11 -3 -15 5 -10
6 3 14 1 18 -6 4 -7 4 -10 -1 -6 -4 4 -13 4 -19 -1 -8 -7 -11 28 -12 120 -1
71 2 129 6 129 4 0 16 -33 27 -72z m-1191 36 c24 -25 32 -54 15 -54 -6 0 -22
10 -36 23 -18 15 -24 28 -20 40 9 23 13 22 41 -9z m467 -40 c-4 -10 -9 -12
-15 -6 -12 12 -1 35 12 27 5 -3 6 -13 3 -21z m1492 -85 c61 -60 126 -120 145
-131 46 -28 79 -58 92 -83 6 -12 0 -9 -15 8 -23 25 -26 26 -24 9 0 -12 4 -19
8 -16 4 2 9 -8 12 -23 4 -24 4 -25 -7 -10 -7 9 -16 14 -19 10 -4 -3 -7 -1 -7
6 0 6 -6 11 -12 10 -28 -3 -39 1 -32 14 5 8 2 8 -9 -2 -13 -10 -17 -10 -17 -1
0 7 -7 10 -15 6 -8 -3 -22 -9 -30 -12 -11 -5 -15 1 -15 19 0 14 5 29 10 32 23
15 4 46 -90 144 -89 92 -116 131 -92 131 4 0 57 -50 117 -111z m-4570 83 c-3
-3 -11 0 -18 7 -9 10 -8 11 6 5 10 -3 15 -9 12 -12z m2925 -14 c25 -13 46 -23
48 -24 1 -1 0 -8 -4 -17 -5 -14 -10 -14 -52 0 -57 19 -64 25 -56 46 8 22 10
21 64 -5z m195 12 c3 -5 -1 -10 -9 -10 -9 0 -16 5 -16 10 0 6 4 10 9 10 6 0
13 -4 16 -10z m-420 -10 c4 -6 24 -19 46 -31 42 -21 48 -46 9 -41 -39 4 -90
33 -90 51 0 29 22 42 35 21z m-1715 -10 c-25 -4 -80 -12 -122 -18 -142 -21
-266 -61 -252 -83 11 -19 85 -47 174 -66 120 -25 440 -25 559 0 204 44 214 79
36 127 -22 6 -60 13 -85 17 -25 3 -49 11 -53 17 -6 8 -10 7 -14 -2 -3 -9 -9
-10 -17 -3 -6 5 -34 11 -61 14 -45 3 -44 4 16 5 133 4 316 -34 361 -75 47 -43
1 -83 -135 -118 -151 -38 -247 -48 -396 -42 -130 5 -321 36 -365 59 -63 32
-73 74 -27 107 52 37 216 69 356 68 64 0 66 0 25 -7z m1037 -5 c85 -20 97 -24
89 -32 -17 -17 -124 -20 -224 -7 -59 7 -108 14 -109 14 -2 0 -3 6 -3 14 0 28
143 34 247 11z m-2862 -247 c253 -161 485 -287 670 -363 50 -21 108 -45 131
-56 89 -40 374 -130 564 -178 105 -27 416 -83 555 -101 130 -16 386 -40 436
-40 14 0 15 -6 5 -61 -9 -48 -17 -66 -38 -82 l-27 -20 -223 27 c-277 33 -418
57 -623 102 -493 109 -922 281 -1339 537 -79 48 -95 62 -81 69 10 6 22 5 33
-3 16 -12 16 -12 1 5 -14 15 -21 16 -38 6 -18 -9 -28 -8 -54 9 -50 32 -211
183 -236 221 -20 30 -17 29 22 -13 49 -51 167 -142 167 -128 0 5 -12 17 -27
26 -75 48 -192 162 -211 205 -42 96 -41 96 105 -13 76 -57 170 -124 208 -149z
m3441 221 l29 -31 -37 18 c-21 10 -38 24 -38 31 0 21 14 15 46 -18z m1795 -16
c-5 -11 -34 -38 -63 -61 -68 -52 -113 -94 -176 -164 -50 -56 -62 -58 -62 -9 0
16 106 125 224 230 51 46 61 50 73 38 11 -11 12 -20 4 -34z m-1531 -24 c0 -6
-5 -7 -12 -3 -8 5 -9 2 -5 -9 4 -11 1 -17 -8 -17 -18 0 -18 5 -4 31 10 19 29
18 29 -2z m185 11 c3 -5 -3 -10 -14 -10 -12 0 -21 5 -21 10 0 6 6 10 14 10 8
0 18 -4 21 -10z m-2786 -44 c7 -5 11 -62 11 -172 0 -90 -1 -164 -2 -164 -10 1
-100 31 -132 45 -32 13 -37 20 -32 38 3 12 11 83 18 158 l12 136 57 -17 c31
-10 62 -21 68 -24z m2417 24 c21 -10 32 -19 24 -20 -8 0 -28 9 -45 20 -38 25
-30 25 21 0z m-769 -25 c13 -4 7 -42 -11 -64 -11 -14 -13 -66 -15 -352 l-1
-176 -39 -1 c-39 -2 -40 -1 -51 46 -7 26 -14 160 -17 304 l-5 258 63 -6 c35
-3 69 -7 76 -9z m1033 -5 c0 -5 -5 -10 -11 -10 -5 0 -7 5 -4 10 3 6 8 10 11
10 2 0 4 -4 4 -10z m2341 -111 c-28 -107 -67 -224 -57 -169 3 14 1 31 -3 39
-6 8 -8 -3 -7 -32 1 -25 -2 -43 -6 -41 -5 3 -8 17 -8 32 0 35 -12 53 -28 43
-7 -4 -12 -12 -10 -17 2 -5 -1 -9 -5 -9 -5 0 -15 -11 -23 -25 l-15 -25 7 25
c4 14 9 27 13 30 3 3 6 10 6 15 1 6 4 29 9 53 4 24 6 46 3 48 -3 3 -55 -14
-117 -37 -102 -38 -113 -40 -127 -26 -15 14 -12 17 28 34 24 9 116 53 204 98
88 44 161 80 163 79 1 -1 -11 -52 -27 -115z m-3125 95 c-3 -9 -6 -20 -6 -25 0
-6 -3 -8 -7 -6 -5 3 -8 -9 -7 -26 1 -37 -14 -109 -25 -120 -4 -4 -6 7 -4 25 1
18 -13 -14 -32 -72 -18 -57 -32 -106 -29 -109 2 -2 4 1 4 7 0 7 4 12 10 12 5
0 9 -16 8 -35 -1 -19 -5 -35 -10 -35 -4 0 -8 -9 -8 -20 0 -11 -5 -20 -11 -20
-5 0 -8 4 -5 8 2 4 1 14 -4 22 -6 9 -10 2 -15 -26 -20 -113 -31 -155 -40 -155
-18 1 -27 134 -21 331 3 107 9 207 12 222 7 29 20 33 138 36 49 2 57 0 52 -14z
m409 -31 c-11 -7 -22 -13 -27 -13 -4 0 -7 -3 -6 -7 1 -5 -3 -18 -10 -30 -20
-37 -61 -222 -75 -338 l-12 -110 -11 70 c-15 90 -11 412 5 428 12 12 128 26
145 18 5 -2 1 -10 -9 -18z m1272 11 c-3 -3 -12 -4 -19 -1 -8 3 -5 6 6 6 11 1
17 -2 13 -5z m48 -44 c10 -22 38 -56 62 -76 23 -19 43 -41 43 -49 0 -12 -108
-42 -257 -70 l-33 -7 0 43 c0 24 8 55 19 73 11 17 22 48 26 68 7 35 9 37 58
46 29 5 55 10 58 11 3 0 14 -17 24 -39z m-1083 -18 c15 -6 13 -9 -11 -20 -25
-11 -33 -28 -71 -140 -23 -70 -48 -141 -57 -159 -14 -31 -52 -52 -54 -30 -1 7
-5 -6 -10 -28 -14 -62 -15 -64 -23 -72 -22 -21 16 409 39 447 7 11 160 12 187
2z m182 -57 c11 -8 16 -15 10 -15 -5 0 -18 7 -28 15 -11 8 -16 15 -10 15 5 0
18 -7 28 -15z m-26 -54 c43 -28 43 -29 18 -35 -14 -3 -25 -10 -25 -14 3 -18
-2 -33 -9 -28 -5 3 -15 -10 -22 -29 -7 -19 -17 -32 -22 -29 -4 3 -8 -2 -8 -11
0 -19 -32 -80 -59 -115 -17 -21 -16 -9 13 90 19 63 37 131 41 150 13 60 14 61
73 21z m-2228 -17 c78 -20 241 -38 390 -45 l25 -1 -25 -8 c-43 -14 -231 -10
-325 6 -49 9 -105 19 -124 21 l-34 5 7 -56 c7 -51 6 -56 -12 -56 -23 0 -32 34
-32 117 0 49 2 54 18 48 9 -4 60 -18 112 -31z m2756 -22 c-9 -8 -26 10 -26 26
1 15 2 15 15 -2 8 -11 13 -21 11 -24z m-264 13 c9 -9 -12 -89 -25 -97 -6 -4
-8 -10 -5 -14 4 -3 1 -19 -7 -35 -8 -15 -15 -37 -15 -49 0 -11 -4 -20 -10 -20
-5 0 -10 -11 -10 -25 0 -53 -17 -21 -27 50 -10 67 -9 82 9 135 20 57 23 60 53
60 17 0 34 -2 37 -5z m363 -17 c4 -13 9 -30 10 -38 2 -8 7 -34 13 -57 l10 -43
-44 0 c-24 0 -44 -5 -44 -11 0 -5 -5 -7 -10 -4 -8 5 -8 11 -1 19 6 7 8 16 5
19 -4 3 1 13 10 22 18 19 21 35 5 35 -35 0 -52 -93 -21 -117 16 -11 16 -12 0
-13 -18 0 -21 9 -33 85 -4 22 -9 51 -12 64 -4 17 -2 22 6 17 6 -4 11 -2 11 3
0 17 30 13 36 -4 9 -24 34 -18 34 8 0 21 -4 23 -32 20 -27 -3 -29 -1 -13 6 36
17 62 12 70 -11z m1272 0 c-3 -8 -6 -5 -6 6 -1 11 2 17 5 13 3 -3 4 -12 1 -19z
m-283 -13 c7 -20 -1 -23 -214 -95 -498 -166 -1185 -337 -1377 -343 -35 -1 -63
-5 -63 -8 0 -7 -177 -29 -350 -43 -46 -4 -88 -10 -92 -12 -4 -3 -8 -1 -8 5 0
7 -8 7 -26 1 -30 -12 -518 -21 -692 -13 l-113 5 3 36 3 36 275 -3 c238 -2 529
8 680 24 25 3 95 9 155 15 118 11 470 57 495 65 8 2 102 20 209 40 276 51 719
170 976 264 126 45 131 46 139 26z m-1324 -30 c0 -14 -4 -25 -9 -25 -4 0 -6
11 -3 25 2 14 6 25 8 25 2 0 4 -11 4 -25z m1710 -76 c88 -88 123 -139 108
-154 -8 -8 -218 223 -218 239 0 9 2 16 5 16 2 0 49 -45 105 -101z m-1569 19
c14 -52 14 -52 -18 -62 -22 -7 -23 -5 -23 52 0 90 19 94 41 10z m620 36 c-40
-17 -261 -74 -287 -74 -40 0 6 17 139 51 153 40 204 48 148 23z m1101 -26 c-7
-7 -12 -23 -12 -37 0 -20 -2 -23 -10 -11 -9 14 18 75 29 65 2 -3 -1 -11 -7
-17z m-2935 -20 c-3 -8 -6 -5 -6 6 -1 11 2 17 5 13 3 -3 4 -12 1 -19z m-3065
-21 c73 -73 519 -308 768 -405 295 -115 560 -189 895 -252 151 -28 507 -79
559 -80 15 0 8 -9 -25 -32 -50 -38 -87 -77 -110 -121 -9 -17 -18 -26 -20 -21
-2 6 -91 25 -198 43 -107 18 -222 40 -255 48 -520 125 -839 237 -1071 377 -33
20 -77 46 -98 58 -74 45 -273 196 -325 247 -28 29 -49 58 -46 63 4 7 2 8 -4 4
-7 -4 -12 -2 -12 3 0 6 -9 11 -21 11 -15 0 -19 4 -15 16 4 11 2 15 -7 11 -7
-3 -20 8 -29 24 -20 35 -17 37 14 6z m3039 -90 c-13 -45 -31 -94 -41 -107 -14
-18 -9 5 18 87 20 61 39 109 41 107 2 -2 -6 -41 -18 -87z m752 78 c-3 -9 -8
-14 -10 -11 -3 3 -2 9 2 15 9 16 15 13 8 -4z m1886 -4 c-11 -17 -183 -86 -504
-202 -189 -68 -530 -166 -750 -214 -44 -10 -85 -22 -92 -27 -7 -6 -18 -6 -24
-2 -9 5 -10 2 -6 -9 4 -12 1 -17 -11 -18 -14 -1 -14 -2 2 -6 15 -4 16 -7 5
-15 -11 -8 -11 -9 3 -5 9 3 19 3 23 -1 4 -4 16 -7 28 -7 13 0 23 -7 25 -19 3
-11 0 -16 -7 -11 -6 3 -9 10 -6 15 3 4 -6 7 -20 6 -28 -1 -34 -16 -7 -17 14 0
14 -2 -3 -8 -11 -5 -22 -4 -24 1 -1 5 -10 3 -20 -6 -9 -9 -63 -21 -131 -30
-217 -29 -415 -55 -465 -60 -292 -30 -1155 -35 -1188 -7 -18 14 -21 50 -11
111 l6 35 396 0 c385 0 449 3 827 41 150 14 480 67 670 105 273 56 672 169
1000 284 209 73 239 82 273 84 19 1 21 -1 11 -18z m-1174 -10 c-14 -12 -75
-22 -75 -12 0 15 14 21 49 21 20 0 31 -4 26 -9z m-2798 -66 c54 -8 101 -15
106 -15 4 0 7 -4 7 -9 0 -9 -250 32 -293 48 -45 17 -30 20 27 5 30 -8 99 -21
153 -29z m1219 -15 c1 -17 -2 -27 -7 -24 -5 3 -9 19 -9 36 0 39 13 28 16 -12z
m-1063 -7 c-7 -2 -19 -2 -25 0 -7 3 -2 5 12 5 14 0 19 -2 13 -5z m4299 -45
c101 -22 221 -125 273 -235 27 -58 49 -196 43 -270 -3 -37 -4 -36 -145 147
-77 102 -178 226 -222 275 -44 50 -81 93 -81 98 0 8 57 2 132 -15z m-3245 -10
c-3 -8 -6 -5 -6 6 -1 11 2 17 5 13 3 -3 4 -12 1 -19z m3138 -120 c39 -45 94
-108 124 -140 30 -32 52 -58 49 -58 -3 0 -25 11 -49 24 -24 14 -66 30 -94 37
-27 6 -58 19 -69 28 -42 37 -78 150 -55 177 6 8 14 14 18 14 3 0 38 -37 76
-82z m-4042 -55 c-7 -2 -19 -2 -25 0 -7 3 -2 5 12 5 14 0 19 -2 13 -5z m2422
-193 c3 -5 1 -10 -4 -10 -6 0 -11 5 -11 10 0 6 2 10 4 10 3 0 8 -4 11 -10z
m1571 -31 c73 -23 166 -81 223 -140 23 -24 60 -80 82 -124 34 -69 40 -92 46
-171 12 -180 -43 -314 -165 -406 -34 -26 -83 -53 -110 -62 -111 -37 -256 -35
-335 5 -21 11 -36 15 -32 8 5 -7 3 -10 -6 -7 -8 3 -14 10 -14 16 0 6 -6 17
-12 24 -10 9 -13 9 -13 0 0 -7 5 -12 11 -12 5 0 8 -4 5 -9 -8 -13 19 -32 37
-25 8 3 17 2 20 -3 3 -4 -9 -9 -26 -11 -18 -1 -41 -4 -52 -6 -11 -3 -24 -5
-30 -5 -5 -1 -3 -6 5 -12 12 -8 9 -9 -10 -4 -175 43 -321 53 -465 32 -54 -9
-104 -13 -109 -10 -5 3 -6 1 -2 -5 5 -8 -2 -12 -21 -12 -16 0 -33 -4 -39 -9
-5 -5 -40 -19 -79 -31 -134 -44 -334 -147 -600 -310 -66 -40 -145 -86 -175
-103 -30 -16 -80 -44 -110 -62 -111 -66 -299 -159 -514 -255 -263 -117 -632
-219 -906 -251 -180 -20 -747 8 -690 34 8 4 3 5 -11 2 -60 -11 -556 146 -681
215 -10 6 -23 10 -28 10 -24 0 -249 114 -243 123 3 6 1 7 -5 3 -14 -9 -163 65
-155 77 3 6 1 7 -5 3 -13 -8 -92 32 -92 46 0 5 -5 6 -12 2 -6 -4 -8 -3 -4 4 6
10 65 0 91 -16 6 -4 15 -7 20 -8 9 -1 59 -16 305 -88 47 -13 111 -30 142 -37
31 -7 55 -16 53 -19 -2 -3 9 -6 23 -6 15 -1 68 -10 117 -21 79 -17 88 -21 70
-32 -18 -11 -18 -11 5 -4 37 11 68 9 255 -17 224 -30 604 -34 825 -7 346 43
660 137 1130 340 206 88 668 310 873 418 265 140 348 190 650 393 356 238 455
286 551 270 56 -9 87 -26 125 -69 58 -66 36 -165 -48 -222 l-34 -23 34 0 c19
0 52 9 74 19 138 64 156 210 40 323 -57 55 -118 81 -205 86 -157 9 -271 -42
-607 -273 -322 -221 -465 -305 -699 -408 -318 -142 -826 -262 -1316 -312 -167
-17 -523 -19 -753 -5 -419 26 -839 118 -1310 288 -229 83 -332 121 -407 151
-129 51 -452 159 -576 191 -256 68 -743 133 -858 115 -39 -6 -45 -9 -29 -16
11 -4 44 -8 73 -8 65 -1 69 -19 5 -24 l-48 -3 57 -2 c47 -2 60 -6 76 -27 21
-26 42 -33 42 -13 0 6 7 4 18 -5 10 -10 28 -17 40 -17 12 0 22 -4 22 -10 0 -5
-18 -10 -39 -10 -22 0 -43 5 -46 10 -8 13 -45 13 -65 0 -10 -7 -3 -8 25 -5
l40 4 -40 -9 c-85 -19 -270 -48 -277 -44 -5 3 -8 19 -8 35 0 22 -4 28 -12 23
-9 -5 -8 -2 1 10 11 13 12 19 2 29 -10 9 -11 8 -6 -8 5 -14 2 -13 -9 5 -8 14
-15 30 -15 35 -1 6 3 4 8 -3 6 -11 9 -9 13 5 6 22 -18 28 -39 10 -7 -5 -13 -8
-13 -5 0 2 -17 53 -39 113 -48 136 -96 304 -89 311 16 16 160 26 298 21 267
-10 411 -50 945 -264 489 -197 626 -249 818 -312 364 -121 624 -179 1027 -231
457 -59 1021 -53 1450 16 674 108 1209 291 1786 612 254 141 348 180 495 207
89 16 199 10 285 -16z m-1391 -65 c-38 -13 -114 -36 -168 -51 -53 -14 -95 -28
-93 -30 2 -2 108 14 236 36 127 23 237 41 243 40 28 -1 -144 -53 -328 -99
-568 -140 -1100 -212 -1585 -214 l-254 -1 -6 30 c-8 38 -33 85 -63 121 l-25
29 327 -3 c450 -5 752 15 1186 78 194 28 480 76 500 84 6 3 30 4 55 4 l45 1
-70 -25z m-2151 -219 c-4 -49 -8 -102 -9 -116 -1 -14 -5 -31 -9 -37 -4 -7 -2
-12 5 -12 8 0 8 -4 1 -12 -5 -7 -12 -24 -14 -38 -1 -14 -7 -28 -12 -32 -6 -4
-5 -12 2 -21 10 -12 9 -16 -3 -21 -9 -3 -14 -10 -10 -15 3 -5 1 -12 -4 -15 -5
-4 -13 -1 -17 5 -3 6 -1 15 6 19 7 4 10 15 7 24 -4 9 5 94 18 188 14 95 25
180 25 188 0 13 1 13 10 0 6 -9 8 -50 4 -105z m-104 83 c0 -25 -12 -58 -19
-53 -4 2 -5 -9 -3 -26 2 -16 0 -29 -6 -29 -5 0 -12 -9 -15 -20 -3 -11 0 -20 6
-20 9 0 9 -2 1 -8 -6 -4 -14 -28 -18 -54 -4 -27 -11 -48 -17 -48 -5 0 -9 -7
-9 -16 0 -9 5 -12 12 -8 7 4 8 3 4 -5 -4 -6 -12 -8 -18 -5 -8 5 -9 1 -4 -12 6
-15 5 -17 -5 -7 -23 23 53 323 81 323 6 0 10 -6 10 -12z m-2953 -234 c-3 -3
-12 -4 -19 -1 -8 3 -5 6 6 6 11 1 17 -2 13 -5z m2720 -56 c-3 -8 -6 -5 -6 6
-1 11 2 17 5 13 3 -3 4 -12 1 -19z m-2582 -38 c3 -5 -1 -10 -10 -10 -9 0 -13
5 -10 10 3 6 8 10 10 10 2 0 7 -4 10 -10z m2730 -76 c9 -7 10 -15 4 -25 -7
-11 -9 -10 -9 5 0 20 0 20 -16 0 -14 -18 -15 -17 -10 21 3 22 7 51 8 65 1 14
3 7 5 -15 2 -22 10 -45 18 -51z m-158 44 c-3 -8 -6 -5 -6 6 -1 11 2 17 5 13 3
-3 4 -12 1 -19z m430 -10 c-3 -8 -6 -5 -6 6 -1 11 2 17 5 13 3 -3 4 -12 1 -19z
m-262 2 c3 -5 1 -10 -4 -10 -6 0 -11 5 -11 10 0 6 2 10 4 10 3 0 8 -4 11 -10z
m265 -81 c0 -5 -4 -9 -10 -9 -5 0 -10 7 -10 16 0 8 5 12 10 9 6 -3 10 -10 10
-16z m-2449 -73 c183 -30 388 -99 694 -233 488 -215 770 -308 1115 -370 117
-21 188 -27 364 -31 203 -4 465 8 586 27 27 4 52 6 55 3 7 -8 -130 -67 -223
-96 -234 -75 -420 -106 -647 -106 -335 -2 -638 48 -1165 190 -305 83 -483 127
-634 158 -114 22 -155 26 -311 26 -169 -1 -188 -3 -310 -33 -192 -48 -179 -47
-213 -14 -48 45 -212 325 -212 360 0 36 296 116 505 137 72 7 308 -3 396 -18z
m5397 -296 c13 0 20 -5 17 -10 -3 -6 1 -7 9 -4 22 9 136 -47 206 -101 69 -53
130 -128 130 -159 0 -24 -3 -25 -125 -26 -44 0 -107 -7 -140 -15 -34 -9 -92
-15 -135 -14 -226 6 -363 1 -354 -12 2 -4 -3 -10 -12 -13 -8 -3 -12 -2 -9 4 3
6 4 10 1 10 -11 0 -121 -55 -127 -63 -3 -5 -9 -8 -13 -8 -22 3 -36 0 -32 -7 2
-4 -23 -19 -57 -32 -163 -64 -450 -238 -445 -269 4 -26 -43 -110 -58 -104 -8
3 -14 -1 -14 -8 0 -8 -17 -25 -38 -39 -20 -13 -50 -37 -65 -53 -15 -15 -32
-25 -37 -22 -5 3 -12 0 -16 -6 -5 -8 -3 -9 7 -4 30 18 1 -5 -65 -50 -38 -25
-76 -49 -85 -53 -8 -3 -26 -19 -39 -34 -17 -20 -31 -27 -46 -23 -11 2 -15 2
-8 -1 9 -4 5 -12 -12 -25 -13 -10 -28 -19 -32 -19 -4 0 -23 -12 -42 -27 -20
-15 -32 -20 -27 -12 6 10 3 9 -11 -2 -33 -28 -144 -80 -156 -73 -7 4 -8 3 -4
-4 4 -7 1 -12 -8 -12 -9 0 -16 -3 -16 -8 0 -4 -28 -18 -62 -32 -35 -13 -67
-27 -73 -31 -5 -4 -25 -10 -42 -14 -18 -3 -33 -11 -33 -16 0 -5 -9 -9 -20 -9
-10 0 -39 -7 -62 -14 -24 -8 -54 -17 -68 -20 -14 -2 -56 -11 -95 -20 -38 -9
-83 -18 -100 -21 -87 -17 -742 -33 -805 -20 -49 10 -115 17 -142 16 -16 -1
-28 3 -28 9 0 6 -12 10 -27 9 -32 -3 -110 10 -133 21 -18 9 -137 40 -165 43
-11 2 -29 6 -40 9 -11 3 -33 9 -48 12 -17 4 -25 11 -21 18 4 6 3 8 -3 5 -5 -3
-33 3 -62 13 -28 11 -60 20 -72 20 -11 0 -18 4 -15 9 3 5 -11 11 -30 14 -20 4
-46 14 -57 24 -11 10 -17 12 -12 4 8 -14 -33 9 -69 38 -11 9 -16 10 -12 4 5
-9 2 -11 -8 -7 -9 3 -13 10 -10 15 3 5 -4 9 -14 9 -11 0 -25 7 -32 15 -6 8
-15 13 -18 12 -12 -3 -72 25 -72 34 0 5 -7 5 -17 2 -11 -4 -14 -3 -9 5 4 7 1
12 -7 12 -8 0 -41 16 -73 35 -32 19 -64 35 -72 35 -11 0 -12 3 -4 13 8 10 6
13 -8 13 -10 0 -16 -4 -14 -8 3 -4 -2 -5 -10 -2 -9 3 -13 10 -10 15 3 5 0 9
-6 9 -6 0 -24 10 -39 21 -17 13 -34 18 -42 14 -7 -5 -10 -4 -6 3 4 5 -16 27
-44 47 -28 20 -48 32 -45 26 4 -7 1 -8 -8 -5 -9 3 -16 10 -16 14 0 5 -17 19
-37 31 -21 13 -40 26 -43 29 -3 4 -12 10 -20 14 -55 26 -120 75 -117 89 1 6
-10 12 -24 12 -30 1 -62 22 -53 36 3 5 -3 6 -13 2 -10 -3 -15 -3 -11 2 4 4 -7
16 -25 26 -17 9 -31 22 -30 28 2 6 -4 8 -12 5 -8 -4 -15 -2 -15 3 0 12 -51 38
-65 34 -5 -2 -7 1 -3 5 10 9 -12 35 -23 28 -5 -3 -9 1 -9 9 0 14 -22 29 -45
31 -5 1 -9 9 -9 18 1 10 -7 20 -17 23 -19 6 -62 59 -54 67 3 2 -5 4 -18 4 -15
-1 -22 4 -21 16 1 11 -4 14 -14 11 -10 -4 -13 -2 -8 5 4 7 1 15 -8 18 -8 3
-12 12 -9 20 3 8 0 14 -6 14 -6 0 -11 -5 -11 -12 0 -6 -11 -1 -25 12 -13 13
-42 26 -62 30 l-38 8 40 1 c146 4 418 -102 723 -283 372 -221 682 -383 879
-460 205 -80 444 -139 693 -172 252 -33 586 -8 828 62 375 109 644 257 1183
651 360 264 552 376 754 442 131 42 196 51 340 45 66 -2 130 -4 143 -4z m-210
-537 c-2 -10 -7 -23 -13 -29 -20 -21 -212 -162 -300 -220 -113 -75 -108 -72
-257 -173 -124 -85 -176 -106 -173 -69 2 31 234 241 359 327 132 90 314 180
364 181 16 0 22 -5 20 -17z m-844 -168 c-7 -16 -24 -21 -24 -6 0 8 7 13 27 20
1 1 0 -6 -3 -14z"/>
<path d="M4504 9024 c13 -35 16 -60 7 -73 -8 -12 -14 -12 -44 2 -61 29 -137
40 -237 33 -166 -10 -295 -64 -400 -167 -63 -61 -75 -79 -37 -55 68 42 255 72
357 55 75 -12 156 -42 198 -73 l32 -23 -57 -7 c-36 -4 -77 -18 -110 -36 -79
-45 -78 -54 3 -47 102 10 238 -8 303 -40 29 -14 82 -54 117 -88 56 -55 64 -60
64 -39 0 35 -36 123 -62 152 l-23 25 40 -7 c141 -24 283 -112 341 -212 29 -50
45 -57 39 -16 -2 15 -6 48 -9 73 -14 129 -94 240 -222 310 -41 23 -76 45 -79
50 -3 4 7 11 22 15 15 3 34 8 42 10 15 5 -65 59 -196 133 -78 44 -99 50 -89
25z"/>
<path d="M5170 8941 c-70 -23 -110 -42 -110 -52 0 -5 7 -6 15 -3 23 9 144 -15
187 -37 79 -40 127 -96 188 -221 l58 -118 -33 0 c-50 0 -148 -34 -205 -70 -27
-18 -50 -33 -50 -34 0 -1 58 0 128 2 143 5 255 -9 310 -37 44 -23 117 -97 127
-128 10 -36 25 -27 25 15 0 51 -26 136 -47 153 -14 12 -5 15 68 26 116 16 167
15 226 -2 59 -17 133 -79 157 -130 9 -19 20 -35 23 -35 3 0 3 25 -1 55 -15
133 -96 257 -200 306 -75 35 -114 36 -200 4 l-66 -25 0 45 c0 32 -4 45 -14 45
-8 0 -17 -9 -21 -19 -3 -11 -12 -25 -21 -32 -12 -10 -13 -9 -9 3 6 15 -18 48
-36 48 -5 0 -9 -8 -9 -17 -1 -10 -15 18 -32 61 -39 100 -98 163 -181 195 -74
27 -197 28 -277 2z"/>
<path d="M3330 8701 c18 -35 13 -44 -26 -38 -126 21 -285 -73 -347 -205 -15
-31 -27 -59 -27 -62 0 -3 22 11 48 31 101 75 227 104 306 70 l28 -12 -40 -18
c-39 -17 -119 -94 -109 -104 3 -2 16 2 29 10 38 25 148 57 195 57 51 0 71 -9
132 -58 l44 -36 -7 27 c-8 34 -45 97 -57 97 -5 0 -9 4 -9 9 0 16 108 24 168
12 65 -13 177 -63 210 -93 59 -57 -12 62 -75 124 -66 64 -137 98 -223 105 -75
6 -88 19 -48 47 12 9 20 17 17 19 -8 6 -174 37 -197 37 -19 0 -21 -3 -12 -19z"/>
<path d="M4248 8231 c2 -17 3 -31 1 -31 -2 0 -28 9 -57 20 -65 25 -160 26
-228 3 -47 -16 -160 -80 -153 -88 2 -2 35 0 73 4 39 4 92 4 120 0 59 -10 146
-51 162 -76 10 -17 7 -19 -28 -19 -41 -2 -128 -31 -128 -43 0 -5 43 -11 95
-13 115 -6 184 -37 253 -113 l45 -50 -7 35 c-3 19 -17 57 -31 84 l-26 49 57
-7 c31 -3 80 -18 109 -32 50 -25 143 -105 164 -142 16 -27 13 1 -9 70 -11 36
-33 83 -49 105 -36 50 -123 108 -184 124 -53 13 -58 23 -21 42 l26 14 -69 41
c-38 22 -81 44 -95 47 -23 6 -24 4 -20 -24z"/>
<path d="M3208 8199 c23 -25 14 -45 -22 -46 -109 -3 -225 -111 -251 -233 l-7
-35 38 39 c66 66 169 106 229 90 19 -5 18 -8 -16 -43 -34 -37 -56 -81 -39 -81
4 0 14 7 21 17 41 49 157 68 202 33 14 -11 28 -20 31 -20 14 0 4 39 -16 65
l-22 28 60 -6 c38 -5 87 -21 137 -45 42 -21 77 -37 77 -35 0 32 -117 154 -167
175 -15 6 -46 14 -68 17 -36 6 -40 9 -37 33 2 24 -2 28 -35 37 -21 6 -58 13
-83 17 -37 5 -43 4 -32 -7z"/>
<path d="M3733 7989 c-40 -12 -43 -29 -5 -29 64 0 126 -74 146 -175 6 -30 6
-30 -41 -31 -27 0 -66 -9 -88 -19 l-40 -19 89 -8 c52 -5 104 -17 126 -28 41
-21 95 -77 105 -109 3 -12 11 -19 16 -15 11 7 3 77 -13 107 -7 14 -4 17 18 17
71 0 157 -24 206 -56 l51 -34 -7 32 c-9 44 -47 100 -92 135 -32 24 -46 28 -96
27 -55 -1 -58 0 -58 22 0 24 -14 32 -25 14 -12 -19 -21 -10 -39 40 -10 27 -27
62 -39 76 -42 54 -134 76 -214 53z"/>
<path d="M4105 7468 c-40 -14 -97 -57 -90 -68 3 -5 0 -12 -6 -16 -8 -4 -9 -3
-5 4 4 7 3 12 -3 12 -14 0 -23 -18 -12 -25 6 -3 8 -12 5 -19 -10 -26 14 -26
58 -1 23 14 39 25 34 25 -6 0 -4 6 2 12 10 10 15 10 22 -1 6 -11 12 -12 22 -4
7 6 27 13 43 16 17 2 10 3 -13 2 -27 -2 -40 1 -34 7 5 5 33 11 61 12 70 5 90
24 25 24 -54 -1 -87 9 -78 23 3 5 4 9 2 8 -2 0 -16 -5 -33 -11z m29 -14 c23
-9 20 -23 -4 -17 -11 3 -20 9 -20 14 0 11 3 11 24 3z m-69 -34 c4 -7 13 -6 26
1 12 6 23 8 26 6 2 -3 -5 -8 -16 -12 -11 -3 -23 -15 -26 -26 -4 -10 -11 -19
-16 -19 -6 0 -7 5 -4 10 7 12 -7 13 -21 3 -5 -5 -1 -1 8 9 22 20 23 32 2 24
-8 -3 -12 -2 -9 4 8 13 22 13 30 0z"/>
<path d="M4160 7466 c7 -7 13 -7 20 0 6 6 3 10 -10 10 -13 0 -16 -4 -10 -10z"/>
<path d="M4205 7460 c3 -5 11 -10 16 -10 6 0 7 5 4 10 -3 6 -11 10 -16 10 -6
0 -7 -4 -4 -10z"/>
<path d="M4274 7432 c3 -5 0 -10 -7 -9 -31 1 -47 -4 -47 -14 0 -7 11 -9 28 -5
l27 5 -30 -15 -30 -15 28 6 c19 4 26 2 22 -5 -3 -5 0 -10 7 -11 13 -1 28 -3
58 -10 8 -2 17 -6 20 -9 3 -3 18 -11 33 -18 54 -23 47 -1 -13 44 -33 25 -64
43 -70 39 -6 -4 -9 -1 -8 6 2 6 -3 14 -11 17 -8 2 -11 0 -7 -6z"/>
<path d="M3324 7409 c15 -12 31 -16 42 -12 10 4 15 2 11 -4 -3 -5 0 -10 8 -11
8 -1 21 -3 29 -4 8 -1 17 -10 19 -20 4 -13 0 -18 -16 -18 -18 0 -19 2 -7 10
10 7 11 10 3 11 -28 3 -32 4 -39 12 -14 14 -26 7 -14 -8 7 -9 19 -14 25 -11 8
3 11 -5 9 -20 -2 -18 5 -28 27 -39 18 -10 29 -11 29 -5 0 6 5 8 10 5 6 -4 8
-10 5 -14 -2 -5 8 -13 23 -20 23 -10 24 -9 10 2 -15 12 -15 14 2 25 13 8 21 8
25 2 4 -6 3 -9 -2 -8 -4 2 -9 -1 -9 -7 -2 -16 7 -35 18 -35 5 0 7 4 3 9 -3 5
-1 12 5 16 6 3 10 -3 10 -15 0 -13 5 -20 13 -17 6 2 11 9 10 15 -2 6 4 9 13 5
13 -5 13 -7 2 -14 -10 -7 -10 -9 2 -10 94 -11 188 -11 225 0 40 11 135 58 160
77 14 11 16 18 8 21 -9 3 -10 10 -3 23 18 34 -8 32 -58 -5 -80 -57 -212 -93
-284 -76 -26 6 -39 5 -42 -3 -3 -7 -5 -7 -5 2 -1 6 -10 12 -21 12 -11 0 -20 4
-20 10 0 5 -11 12 -25 16 -14 3 -25 10 -25 14 0 4 -27 28 -60 54 -53 42 -63
46 -77 34 -14 -11 -16 -11 -11 3 5 12 -1 16 -23 17 l-30 1 25 -20z m130 -70
c-3 -6 1 -9 9 -7 9 2 16 -1 16 -7 1 -5 -5 -10 -11 -10 -7 0 -16 -4 -20 -9 -4
-6 -15 -6 -30 1 l-23 11 28 11 c17 7 25 15 21 23 -4 7 -3 8 5 4 6 -4 9 -12 5
-17z"/>
<path d="M3430 7320 c-9 -6 -10 -10 -3 -10 6 0 15 5 18 10 8 12 4 12 -15 0z"/>
<path d="M3240 7395 c-14 -8 -20 -15 -15 -16 6 0 -1 -4 -15 -8 -14 -4 -24 -13
-22 -20 1 -7 -2 -10 -7 -7 -5 4 -12 2 -16 -4 -3 -5 3 -10 13 -10 11 0 23 7 26
16 4 9 13 14 21 10 8 -3 15 -1 15 4 0 6 5 10 11 10 5 0 8 -4 5 -9 -3 -5 16
-12 44 -16 27 -4 52 -11 56 -16 11 -19 25 -9 14 11 -7 13 -21 20 -38 20 -16 0
-37 6 -47 14 -11 8 -26 12 -35 9 -12 -4 -13 -3 -1 5 8 6 27 9 43 7 16 -3 26 0
23 5 -9 14 -46 12 -75 -5z"/>
<path d="M3290 7380 c8 -5 22 -9 30 -9 10 0 8 3 -5 9 -27 12 -43 12 -25 0z"/>
<path d="M3130 7320 c-9 -6 -10 -10 -3 -10 6 0 15 5 18 10 8 12 4 12 -15 0z"/>
<path d="M1416 5332 c5 -4 52 -5 104 -2 l95 6 -104 2 c-58 1 -101 -2 -95 -6z"/>
<path d="M1630 5333 c8 -3 21 -10 28 -16 9 -7 11 -6 6 7 -3 9 -16 16 -28 15
-14 0 -16 -2 -6 -6z"/>
<path d="M8773 5333 c9 -2 23 -2 30 0 6 3 -1 5 -18 5 -16 0 -22 -2 -12 -5z"/>
<path d="M1616 5305 c-9 -26 -7 -32 5 -12 6 10 9 21 6 23 -2 3 -7 -2 -11 -11z"/>
<path d="M8748 5313 c7 -3 16 -2 19 1 4 3 -2 6 -13 5 -11 0 -14 -3 -6 -6z"/>
<path d="M1258 5293 c7 -3 16 -2 19 1 4 3 -2 6 -13 5 -11 0 -14 -3 -6 -6z"/>
<path d="M1323 5293 c9 -2 23 -2 30 0 6 3 -1 5 -18 5 -16 0 -22 -2 -12 -5z"/>
<path d="M8775 5290 c-3 -5 -2 -10 4 -10 5 0 13 5 16 10 3 6 2 10 -4 10 -5 0
-13 -4 -16 -10z"/>
<path d="M1323 5193 c37 -2 97 -2 135 0 37 2 6 3 -68 3 -74 0 -105 -1 -67 -3z"/>
<path d="M1740 4986 c0 -2 7 -6 15 -10 8 -3 15 -1 15 4 0 6 -7 10 -15 10 -8 0
-15 -2 -15 -4z"/>
<path d="M1797 4869 c4 -13 8 -18 11 -10 2 7 -1 18 -6 23 -8 8 -9 4 -5 -13z"/>
<path d="M5218 7803 c6 -2 18 -2 25 0 6 3 1 5 -13 5 -14 0 -19 -2 -12 -5z"/>
<path d="M5420 7600 c0 -11 2 -20 4 -20 2 0 6 9 9 20 3 11 1 20 -4 20 -5 0 -9
-9 -9 -20z"/>
<path d="M5460 7560 c0 -5 5 -10 10 -10 6 0 10 5 10 10 0 6 -4 10 -10 10 -5 0
-10 -4 -10 -10z"/>
<path d="M5427 7544 c5 -13 2 -15 -18 -10 -22 6 -21 5 4 -9 15 -9 27 -18 27
-21 0 -3 -12 -4 -27 -1 -16 2 -22 2 -14 -1 12 -3 12 -5 0 -14 -10 -6 -7 -7 11
-3 29 8 66 39 40 33 -9 -2 -14 3 -12 14 1 9 -2 19 -8 23 -6 4 -7 -1 -3 -11z"/>
<path d="M6590 7419 c0 -4 12 -15 28 -24 27 -18 27 -18 9 2 -14 16 -15 22 -5
26 7 3 3 4 -9 4 -13 -1 -23 -4 -23 -8z"/>
<path d="M5447 7217 c-3 -8 1 -14 8 -14 7 0 11 6 8 14 -3 7 -6 13 -8 13 -2 0
-5 -6 -8 -13z"/>
<path d="M2865 6489 c-4 -6 -5 -12 -2 -15 2 -3 7 2 10 11 7 17 1 20 -8 4z"/>
<path d="M2756 5131 c-3 -5 8 -14 26 -20 39 -14 51 -14 43 -1 -4 6 -11 8 -16
5 -5 -4 -9 -2 -9 4 0 6 -7 7 -17 4 -11 -4 -14 -3 -9 5 4 7 3 12 -3 12 -5 0
-12 -4 -15 -9z"/>
<path d="M2880 5066 c7 -7 13 -7 20 0 6 6 3 10 -10 10 -13 0 -16 -4 -10 -10z"/>
<path d="M2952 5051 c-8 -4 -14 -12 -13 -16 0 -10 50 -35 70 -35 9 1 1 7 -16
15 -34 15 -42 30 -20 38 6 3 8 6 2 6 -5 0 -16 -3 -23 -8z"/>
<path d="M3145 4936 c21 -8 41 -13 44 -11 8 9 -7 16 -45 21 l-39 5 40 -15z"/>
<path d="M3230 4896 c0 -2 7 -7 16 -10 8 -3 12 -2 9 4 -6 10 -25 14 -25 6z"/>
<path d="M3908 4703 c-10 -2 -18 -9 -18 -14 0 -6 10 -5 23 2 37 20 36 23 -5
12z"/>
<path d="M3954 4699 c-5 -9 25 -14 55 -9 8 1 18 -4 22 -12 6 -10 11 -10 20 -1
9 9 6 13 -12 17 -56 11 -80 13 -85 5z"/>
<path d="M3960 4670 c34 -11 60 -11 35 0 -11 5 -29 8 -40 8 -16 0 -15 -2 5 -8z"/>
<path d="M4120 4670 c8 -5 22 -10 30 -10 13 0 13 1 0 10 -8 5 -22 10 -30 10
-13 0 -13 -1 0 -10z"/>
<path d="M4073 4663 c9 -2 15 -8 12 -12 -2 -4 10 -8 28 -9 l32 -1 -25 14 c-14
8 -34 14 -45 13 -17 0 -17 -1 -2 -5z"/>
<path d="M4166 4654 c-7 -18 17 -29 42 -18 9 4 24 6 32 5 30 -5 -5 16 -37 22
-22 5 -33 2 -37 -9z m41 -10 c-3 -3 -12 -4 -19 -1 -8 3 -5 6 6 6 11 1 17 -2
13 -5z"/>
<path d="M4265 4640 c-4 -6 7 -10 27 -10 25 0 29 3 18 10 -19 13 -37 13 -45 0z"/>
<path d="M1990 4905 c0 -5 5 -17 10 -25 5 -8 10 -10 10 -5 0 6 -5 17 -10 25
-5 8 -10 11 -10 5z"/>
<path d="M2076 4700 c10 -39 120 -266 133 -274 6 -4 -2 21 -19 56 -89 181
-120 241 -114 218z"/>
<path d="M2410 5073 c0 -5 16 -18 35 -31 19 -12 35 -19 35 -15 0 5 -16 18 -35
31 -19 12 -35 19 -35 15z"/>
<path d="M5163 5020 c0 -30 2 -43 4 -27 2 15 2 39 0 55 -2 15 -4 2 -4 -28z"/>
<path d="M5412 5200 c0 -14 2 -19 5 -12 2 6 2 18 0 25 -3 6 -5 1 -5 -13z"/>
<path d="M6855 4952 c-6 -6 4 -22 15 -22 4 0 10 6 13 13 5 13 -17 20 -28 9z"/>
<path d="M6010 4589 c0 -5 5 -7 10 -4 6 3 10 8 10 11 0 2 -4 4 -10 4 -5 0 -10
-5 -10 -11z"/>
<path d="M8162 3983 c-37 -7 -88 -64 -96 -106 -5 -29 -2 -49 18 -90 24 -51 24
-52 25 -19 1 46 26 89 61 107 43 22 68 19 102 -15 16 -16 31 -30 34 -30 2 0 4
19 4 43 0 51 -21 84 -66 103 -34 14 -41 15 -82 7z"/>
<path d="M7911 3916 c-51 -39 -56 -51 -19 -51 15 -1 25 2 22 6 -2 4 2 11 9 16
15 8 41 52 35 58 -2 2 -23 -11 -47 -29z m9 -10 c0 -9 -32 -36 -42 -36 -6 0 0
9 13 20 25 21 29 23 29 16z"/>
<path d="M1560 3930 c0 -13 11 -13 30 0 12 8 11 10 -7 10 -13 0 -23 -4 -23
-10z"/>
<path d="M1518 3923 c7 -3 16 -2 19 1 4 3 -2 6 -13 5 -11 0 -14 -3 -6 -6z"/>
<path d="M7830 3860 c-9 -6 -10 -10 -3 -10 6 0 15 5 18 10 8 12 4 12 -15 0z"/>
<path d="M7932 3850 c0 -14 2 -19 5 -12 2 6 2 18 0 25 -3 6 -5 1 -5 -13z"/>
<path d="M7898 3843 c7 -3 16 -2 19 1 4 3 -2 6 -13 5 -11 0 -14 -3 -6 -6z"/>
<path d="M1638 3833 c7 -3 16 -2 19 1 4 3 -2 6 -13 5 -11 0 -14 -3 -6 -6z"/>
<path d="M1675 3830 c-7 -12 19 -24 37 -17 7 3 3 6 -10 6 -13 1 -20 5 -17 11
3 6 4 10 1 10 -3 0 -8 -5 -11 -10z"/>
<path d="M7789 3823 c-13 -16 -12 -17 4 -4 16 13 21 21 13 21 -2 0 -10 -8 -17
-17z"/>
<path d="M7816 3811 c-3 -5 1 -11 9 -15 8 -3 15 -1 15 4 0 13 -18 22 -24 11z"/>
<path d="M7755 3780 l-30 -8 27 -1 c15 0 30 4 33 9 3 6 5 9 3 9 -2 -1 -16 -5
-33 -9z"/>
<path d="M7800 3770 c-8 -5 -10 -10 -5 -10 6 0 17 5 25 10 8 5 11 10 5 10 -5
0 -17 -5 -25 -10z"/>
<path d="M7930 3736 c0 -8 4 -17 9 -20 5 -4 7 3 4 14 -6 23 -13 26 -13 6z"/>
<path d="M7661 3733 c1 -4 0 -10 -1 -13 -6 -18 -7 -39 0 -35 12 8 19 44 9 51
-5 3 -9 2 -8 -3z"/>
<path d="M7620 3700 c-8 -15 -8 -18 3 -14 8 3 14 11 14 19 0 20 -4 19 -17 -5z"/>
<path d="M7936 3667 c3 -10 9 -15 12 -12 3 3 0 11 -7 18 -10 9 -11 8 -5 -6z"/>
<path d="M7545 3650 c-3 -6 1 -7 9 -4 18 7 21 14 7 14 -6 0 -13 -4 -16 -10z"/>
<path d="M7510 3625 c-11 -13 -10 -14 4 -9 9 3 16 10 16 15 0 13 -6 11 -20 -6z"/>
<path d="M7956 3627 c3 -10 9 -15 12 -12 3 3 0 11 -7 18 -10 9 -11 8 -5 -6z"/>
<path d="M7550 3620 c-9 -6 -10 -10 -3 -10 6 0 15 5 18 10 8 12 4 12 -15 0z"/>
<path d="M7991 3590 c7 -14 12 -30 11 -37 -4 -17 12 -23 28 -11 12 8 11 9 -4
4 -13 -4 -17 -2 -13 7 3 7 -4 24 -15 38 l-19 24 12 -25z"/>
<path d="M7408 3564 c-39 -21 -35 -28 5 -8 37 19 44 24 31 24 -5 -1 -21 -8
-36 -16z"/>
<path d="M7260 3476 c0 -2 8 -10 18 -17 15 -13 16 -12 3 4 -13 16 -21 21 -21
13z"/>
<path d="M6863 3245 c0 -8 4 -12 9 -9 5 3 6 10 3 15 -9 13 -12 11 -12 -6z"/>
<path d="M6795 3221 c-6 -5 -37 -24 -70 -41 -33 -17 -51 -28 -40 -24 11 3 30
9 43 11 12 3 22 9 22 13 0 8 52 34 63 31 5 -1 6 3 2 9 -8 12 -9 12 -20 1z"/>
<path d="M6510 3070 c-8 -5 -12 -12 -9 -15 4 -3 12 1 19 10 14 17 11 19 -10 5z"/>
<path d="M6430 3030 c-8 -5 -10 -10 -5 -10 6 0 17 5 25 10 8 5 11 10 5 10 -5
0 -17 -5 -25 -10z"/>
<path d="M6350 2990 c-9 -6 -10 -10 -3 -10 6 0 15 5 18 10 8 12 4 12 -15 0z"/>
<path d="M6226 2931 c-4 -5 3 -7 14 -4 23 6 26 13 6 13 -8 0 -17 -4 -20 -9z"/>
<path d="M6140 2890 c-9 -6 -10 -10 -3 -10 6 0 15 5 18 10 8 12 4 12 -15 0z"/>
<path d="M6096 2865 c-10 -8 -23 -12 -27 -9 -5 3 -17 1 -26 -5 -14 -8 -11 -9
16 -6 19 2 41 11 50 19 19 20 12 20 -13 1z"/>
<path d="M3230 2868 c13 -14 49 -27 54 -20 3 5 0 9 -7 9 -7 0 -21 4 -32 8 -11
5 -18 6 -15 3z"/>
<path d="M3356 2808 c3 -4 11 -5 19 -1 21 7 19 12 -4 10 -11 0 -18 -5 -15 -9z"/>
<path d="M5870 2780 c-25 -10 -38 -19 -29 -19 16 -1 79 27 79 35 0 5 2 6 -50
-16z"/>
<path d="M5775 2750 c-13 -5 -14 -9 -5 -9 8 0 24 4 35 9 13 5 14 9 5 9 -8 0
-24 -4 -35 -9z"/>
<path d="M3610 2740 c8 -5 20 -10 25 -10 6 0 3 5 -5 10 -8 5 -19 10 -25 10 -5
0 -3 -5 5 -10z"/>
<path d="M5708 2723 c7 -3 16 -2 19 1 4 3 -2 6 -13 5 -11 0 -14 -3 -6 -6z"/>
<path d="M5630 2701 c-8 -5 -36 -12 -62 -15 -49 -7 -67 -19 -47 -32 7 -4 9 -3
5 4 -4 7 11 13 41 18 43 6 114 33 88 33 -5 0 -17 -3 -25 -8z"/>
<path d="M3883 2663 c9 -2 25 -2 35 0 9 3 1 5 -18 5 -19 0 -27 -2 -17 -5z"/>
<path d="M3978 2663 c7 -3 16 -2 19 1 4 3 -2 6 -13 5 -11 0 -14 -3 -6 -6z"/>
<path d="M4028 2663 c6 -2 18 -2 25 0 6 3 1 5 -13 5 -14 0 -19 -2 -12 -5z"/>
<path d="M5475 2660 c-4 -6 -15 -8 -26 -5 -10 4 -19 2 -19 -4 0 -5 -10 -9 -22
-9 -45 3 -78 -2 -78 -11 0 -14 103 -7 108 7 2 7 7 10 12 7 4 -3 18 -1 31 3 14
5 18 11 11 16 -6 3 -14 2 -17 -4z"/>
<path d="M5598 2663 c7 -3 16 -2 19 1 4 3 -2 6 -13 5 -11 0 -14 -3 -6 -6z"/>
<path d="M4240 2630 c0 -5 5 -10 11 -10 5 0 7 5 4 10 -3 6 -8 10 -11 10 -2 0
-4 -4 -4 -10z"/>
<path d="M3810 2620 c-8 -5 -10 -10 -5 -10 6 0 17 5 25 10 8 5 11 10 5 10 -5
0 -17 -5 -25 -10z"/>
<path d="M4280 2620 c0 -5 6 -10 14 -10 8 0 18 5 21 10 3 6 -3 10 -14 10 -12
0 -21 -4 -21 -10z"/>
<path d="M4348 2613 c7 -3 16 -2 19 1 4 3 -2 6 -13 5 -11 0 -14 -3 -6 -6z"/>
<path d="M5190 2610 c-11 -7 -5 -8 20 -4 43 8 51 14 19 14 -13 0 -31 -5 -39
-10z"/>
<path d="M4397 2597 c-3 -9 16 -13 69 -15 41 -2 74 1 74 6 0 5 -19 9 -42 8
-24 0 -55 2 -69 6 -18 5 -28 4 -32 -5z"/>
<path d="M4338 2593 c7 -3 16 -2 19 1 4 3 -2 6 -13 5 -11 0 -14 -3 -6 -6z"/>
<path d="M5038 2593 c6 -2 18 -2 25 0 6 3 1 5 -13 5 -14 0 -19 -2 -12 -5z"/>
<path d="M4668 2583 c18 -2 45 -2 60 0 15 2 0 4 -33 4 -33 0 -45 -2 -27 -4z"/>
<path d="M4957 2579 c7 -7 15 -10 18 -7 3 3 -2 9 -12 12 -14 6 -15 5 -6 -5z"/>
<path d="M4415 2570 c3 -5 8 -10 11 -10 2 0 4 5 4 10 0 6 -5 10 -11 10 -5 0
-7 -4 -4 -10z"/>
<path d="M7808 3223 c7 -3 16 -2 19 1 4 3 -2 6 -13 5 -11 0 -14 -3 -6 -6z"/>
<path d="M7688 3208 c9 -9 15 -9 24 0 9 9 7 12 -12 12 -19 0 -21 -3 -12 -12z"/>
<path d="M7920 3212 c0 -4 22 -14 48 -23 26 -9 55 -20 65 -24 10 -4 17 -3 17
4 0 6 -8 11 -18 11 -10 0 -22 4 -27 9 -13 12 -85 31 -85 23z"/>
<path d="M7565 3180 c-13 -6 -15 -9 -5 -9 8 0 22 4 30 9 18 12 2 12 -25 0z"/>
<path d="M7518 3163 c7 -3 16 -2 19 1 4 3 -2 6 -13 5 -11 0 -14 -3 -6 -6z"/>
<path d="M8070 3166 c0 -2 7 -7 16 -10 8 -3 12 -2 9 4 -6 10 -25 14 -25 6z"/>
<path d="M7438 3133 c7 -3 16 -2 19 1 4 3 -2 6 -13 5 -11 0 -14 -3 -6 -6z"/>
<path d="M2517 3009 c7 -7 15 -10 18 -7 3 3 -2 9 -12 12 -14 6 -15 5 -6 -5z"/>
<path d="M2809 2823 c-13 -16 -12 -17 4 -4 16 13 21 21 13 21 -2 0 -10 -8 -17
-17z"/>
<path d="M2870 2806 c0 -3 9 -10 20 -16 11 -6 20 -8 20 -6 0 3 -9 10 -20 16
-11 6 -20 8 -20 6z"/>
<path d="M2884 2761 c0 -11 5 -17 13 -14 10 4 11 9 2 19 -15 18 -15 18 -15 -5z"/>
<path d="M2932 2764 c10 -10 20 -16 22 -13 3 3 -5 11 -17 18 -21 13 -21 12 -5
-5z"/>
<path d="M3070 2676 c0 -2 7 -7 16 -10 8 -3 12 -2 9 4 -6 10 -25 14 -25 6z"/>
<path d="M3167 2619 c12 -12 24 -21 27 -18 2 2 -8 13 -22 23 l-27 19 22 -24z"/>
<path d="M6757 2595 c-18 -13 -18 -14 3 -25 17 -9 25 -9 34 1 8 9 8 10 -1 5
-20 -11 -36 3 -22 20 14 18 9 17 -14 -1z"/>
<path d="M6709 2563 c-12 -16 -12 -17 2 -6 9 7 20 9 24 5 5 -4 5 -1 1 6 -9 16
-11 15 -27 -5z"/>
<path d="M3283 2545 c0 -8 4 -12 9 -9 5 3 6 10 3 15 -9 13 -12 11 -12 -6z"/>
<path d="M3294 2514 c-18 -15 -18 -15 3 -5 28 14 36 14 27 -1 -4 -7 -3 -8 5
-4 11 7 6 26 -8 26 -4 0 -16 -7 -27 -16z"/>
<path d="M6535 2451 c-3 -5 -2 -12 3 -15 5 -3 9 1 9 9 0 17 -3 19 -12 6z"/>
<path d="M3445 2441 c-3 -5 -2 -12 3 -15 5 -3 9 1 9 9 0 17 -3 19 -12 6z"/>
<path d="M6505 2431 c-3 -5 -2 -12 3 -15 5 -3 9 1 9 9 0 17 -3 19 -12 6z"/>
<path d="M6469 2407 c-14 -11 -14 -14 -2 -26 12 -11 14 -10 11 5 -2 12 2 18
10 16 8 -1 11 2 7 8 -7 12 -6 12 -26 -3z"/>
<path d="M3560 2376 c0 -2 7 -7 16 -10 8 -3 12 -2 9 4 -6 10 -25 14 -25 6z"/>
<path d="M6395 2360 c-39 -26 -25 -26 17 0 18 11 29 20 23 20 -5 0 -23 -9 -40
-20z"/>
<path d="M3707 2289 c7 -7 15 -10 18 -7 3 3 -2 9 -12 12 -14 6 -15 5 -6 -5z"/>
<path d="M6275 2290 c-8 -13 5 -13 25 0 13 8 13 10 -2 10 -9 0 -20 -4 -23 -10z"/>
<path d="M6215 2256 l-30 -13 31 1 c17 1 31 6 31 14 0 6 -1 12 -1 12 -1 -1
-14 -7 -31 -14z"/>
<path d="M3780 2256 c0 -2 7 -7 16 -10 8 -3 12 -2 9 4 -6 10 -25 14 -25 6z"/>
<path d="M6268 2253 c7 -3 16 -2 19 1 4 3 -2 6 -13 5 -11 0 -14 -3 -6 -6z"/>
<path d="M6120 2210 c-19 -10 -61 -29 -93 -41 -32 -12 -55 -24 -53 -27 5 -4
32 6 149 56 20 9 37 19 37 24 0 10 1 11 -40 -12z"/>
<path d="M3870 2210 c8 -5 20 -10 25 -10 6 0 3 5 -5 10 -8 5 -19 10 -25 10 -5
0 -3 -5 5 -10z"/>
<path d="M3920 2190 c8 -5 20 -10 25 -10 6 0 3 5 -5 10 -8 5 -19 10 -25 10 -5
0 -3 -5 5 -10z"/>
<path d="M5931 2126 c-20 -11 -21 -14 -6 -19 24 -10 32 -8 15 3 -13 8 -12 10
3 10 9 0 17 5 17 10 0 12 0 12 -29 -4z"/>
<path d="M4087 2119 c7 -7 15 -10 18 -7 3 3 -2 9 -12 12 -14 6 -15 5 -6 -5z"/>
<path d="M4127 2099 c7 -7 15 -10 18 -7 3 3 -2 9 -12 12 -14 6 -15 5 -6 -5z"/>
<path d="M5855 2100 c-13 -5 -14 -9 -5 -9 8 0 24 4 35 9 13 5 14 9 5 9 -8 0
-24 -4 -35 -9z"/>
<path d="M5797 2079 c-11 -6 -24 -12 -30 -13 -66 -14 -136 -41 -125 -48 7 -4
22 -7 33 -7 19 0 19 1 1 8 -14 5 -5 10 35 19 30 7 67 19 83 27 15 8 33 12 39
8 6 -3 7 -1 3 5 -9 15 -16 15 -39 1z"/>
<path d="M4190 2076 c0 -2 7 -7 16 -10 8 -3 12 -2 9 4 -6 10 -25 14 -25 6z"/>
<path d="M4320 2030 c34 -11 60 -11 35 0 -11 5 -29 8 -40 8 -16 0 -15 -2 5 -8z"/>
<path d="M5560 2010 c-22 -7 -20 -8 12 -7 20 1 34 5 31 10 -5 8 -9 8 -43 -3z"/>
<path d="M4500 1996 c0 -2 7 -7 16 -10 8 -3 12 -2 9 4 -6 10 -25 14 -25 6z"/>
<path d="M5480 1990 c-12 -8 -9 -10 13 -10 16 0 26 4 22 10 -8 12 -16 12 -35
0z"/>
<path d="M5413 1973 c9 -2 25 -2 35 0 9 3 1 5 -18 5 -19 0 -27 -2 -17 -5z"/>
<path d="M5288 1963 c6 -2 18 -2 25 0 6 3 1 5 -13 5 -14 0 -19 -2 -12 -5z"/>
<path d="M4678 1953 c7 -3 16 -2 19 1 4 3 -2 6 -13 5 -11 0 -14 -3 -6 -6z"/>
<path d="M4720 1956 c0 -8 51 -13 56 -5 3 5 -9 9 -25 9 -17 0 -31 -2 -31 -4z"/>
<path d="M4828 1943 c7 -3 16 -2 19 1 4 3 -2 6 -13 5 -11 0 -14 -3 -6 -6z"/>
<path d="M5036 1942 c-2 -4 12 -6 32 -4 56 5 62 10 15 11 -23 1 -44 -3 -47 -7z"/>
<path d="M4898 1933 c12 -2 32 -2 45 0 12 2 2 4 -23 4 -25 0 -35 -2 -22 -4z"/>
</g>
</svg>
